M48
;Layer_Color=9474304
;FILE_FORMAT=4:4
METRIC,LZ
;TYPE=PLATED
T1F00S00C0.2540
T2F00S00C0.9000
%
T01
X00073152Y-00150876
Y-0012573
X00115062Y-00130302
X0011049Y-0010668
X0010287
X00188214Y-0008763
X00182118Y-00069342
T02
X00016764Y-00195072
Y-00169672
Y-00144272
Y-00118872
Y-00093472
Y-00068072
Y-00042672
Y-00017272
X00118364Y-00017526
X00143764
X00245364Y-00017272
Y-00042672
Y-00068072
Y-00093472
Y-00118872
Y-00144272
Y-00169672
Y-00195072
M30
