M48
;Layer_Color=9474304
;FILE_FORMAT=4:4
METRIC,LZ
;TYPE=PLATED
T1F00S00C0.2540
T2F00S00C0.9000
T3F00S00C1.0200
%
T01
X00073152Y-00150876
Y-0012573
X00115062Y-00130302
X0011049Y-0010668
X0010287
X00188214Y-0008763
X00182118Y-00069342
T02
X00016002Y-00196088
Y-00170688
Y-00145288
Y-00119888
Y-00094488
Y-00069088
Y-00043688
Y-00018288
X00245364Y-00017526
Y-00042926
Y-00068326
Y-00093726
Y-00119126
Y-00144526
Y-00169926
Y-00195326
T03
X00118364Y-00017526
X00143764
M30
