%TF.GenerationSoftware,Altium Limited,Altium Designer,23.2.1 (34)*%
G04 Layer_Physical_Order=2*
G04 Layer_Color=16711680*
%FSLAX45Y45*%
%MOMM*%
%TF.SameCoordinates,1935415B-2679-425B-B15E-09B645F885D3*%
%TF.FilePolarity,Positive*%
%TF.FileFunction,Copper,L2,Bot,Signal*%
%TF.Part,Single*%
G01*
G75*
%TA.AperFunction,Conductor*%
%ADD13C,0.12700*%
%TA.AperFunction,ComponentPad*%
%ADD14C,1.70000*%
%ADD15R,1.70000X1.70000*%
%ADD16R,1.70000X1.70000*%
%TA.AperFunction,ViaPad*%
%ADD17C,0.45720*%
G36*
X2602853Y-2099933D02*
X33667D01*
Y-33667D01*
X2602853D01*
Y-2099933D01*
D02*
G37*
%LPC*%
G36*
X2558960Y-67400D02*
X2348320D01*
Y-278040D01*
X2558960D01*
Y-67400D01*
D02*
G37*
G36*
X272960D02*
X62320D01*
Y-278040D01*
X272960D01*
Y-67400D01*
D02*
G37*
G36*
X1288960Y-69940D02*
X1078320D01*
Y-280580D01*
X1288960D01*
Y-69940D01*
D02*
G37*
G36*
X2467506Y-321400D02*
X2439774D01*
X2412988Y-328577D01*
X2388972Y-342443D01*
X2369363Y-362052D01*
X2355497Y-386068D01*
X2348320Y-412854D01*
Y-440586D01*
X2355497Y-467372D01*
X2369363Y-491388D01*
X2388972Y-510997D01*
X2412988Y-524863D01*
X2439774Y-532040D01*
X2467506D01*
X2494292Y-524863D01*
X2518308Y-510997D01*
X2537917Y-491388D01*
X2551783Y-467372D01*
X2558960Y-440586D01*
Y-412854D01*
X2551783Y-386068D01*
X2537917Y-362052D01*
X2518308Y-342443D01*
X2494292Y-328577D01*
X2467506Y-321400D01*
D02*
G37*
G36*
X181506D02*
X153774D01*
X126988Y-328577D01*
X102972Y-342443D01*
X83363Y-362052D01*
X69497Y-386068D01*
X62320Y-412854D01*
Y-440586D01*
X69497Y-467372D01*
X83363Y-491388D01*
X102972Y-510997D01*
X126988Y-524863D01*
X153774Y-532040D01*
X181506D01*
X208292Y-524863D01*
X232308Y-510997D01*
X251917Y-491388D01*
X265783Y-467372D01*
X272960Y-440586D01*
Y-412854D01*
X265783Y-386068D01*
X251917Y-362052D01*
X232308Y-342443D01*
X208292Y-328577D01*
X181506Y-321400D01*
D02*
G37*
G36*
X2467506Y-575400D02*
X2439774D01*
X2412988Y-582577D01*
X2388972Y-596443D01*
X2369363Y-616052D01*
X2355497Y-640068D01*
X2348320Y-666854D01*
Y-694586D01*
X2355497Y-721372D01*
X2369363Y-745388D01*
X2388972Y-764997D01*
X2412988Y-778863D01*
X2439774Y-786040D01*
X2467506D01*
X2494292Y-778863D01*
X2518308Y-764997D01*
X2537917Y-745388D01*
X2551783Y-721372D01*
X2558960Y-694586D01*
Y-666854D01*
X2551783Y-640068D01*
X2537917Y-616052D01*
X2518308Y-596443D01*
X2494292Y-582577D01*
X2467506Y-575400D01*
D02*
G37*
G36*
X181506D02*
X153774D01*
X126988Y-582577D01*
X102972Y-596443D01*
X83363Y-616052D01*
X69497Y-640068D01*
X62320Y-666854D01*
Y-694586D01*
X69497Y-721372D01*
X83363Y-745388D01*
X102972Y-764997D01*
X126988Y-778863D01*
X153774Y-786040D01*
X181506D01*
X208292Y-778863D01*
X232308Y-764997D01*
X251917Y-745388D01*
X265783Y-721372D01*
X272960Y-694586D01*
Y-666854D01*
X265783Y-640068D01*
X251917Y-616052D01*
X232308Y-596443D01*
X208292Y-582577D01*
X181506Y-575400D01*
D02*
G37*
G36*
X2467506Y-829400D02*
X2439774D01*
X2412988Y-836577D01*
X2388972Y-850443D01*
X2369363Y-870052D01*
X2355497Y-894068D01*
X2348320Y-920854D01*
Y-948586D01*
X2355497Y-975372D01*
X2369363Y-999388D01*
X2388972Y-1018997D01*
X2412988Y-1032863D01*
X2439774Y-1040040D01*
X2467506D01*
X2494292Y-1032863D01*
X2518308Y-1018997D01*
X2537917Y-999388D01*
X2551783Y-975372D01*
X2558960Y-948586D01*
Y-920854D01*
X2551783Y-894068D01*
X2537917Y-870052D01*
X2518308Y-850443D01*
X2494292Y-836577D01*
X2467506Y-829400D01*
D02*
G37*
G36*
X181506D02*
X153774D01*
X126988Y-836577D01*
X102972Y-850443D01*
X83363Y-870052D01*
X69497Y-894068D01*
X62320Y-920854D01*
Y-948586D01*
X69497Y-975372D01*
X83363Y-999388D01*
X102972Y-1018997D01*
X126988Y-1032863D01*
X153774Y-1040040D01*
X181506D01*
X208292Y-1032863D01*
X232308Y-1018997D01*
X251917Y-999388D01*
X265783Y-975372D01*
X272960Y-948586D01*
Y-920854D01*
X265783Y-894068D01*
X251917Y-870052D01*
X232308Y-850443D01*
X208292Y-836577D01*
X181506Y-829400D01*
D02*
G37*
G36*
X1829769Y-650240D02*
X1812591D01*
X1796721Y-656814D01*
X1784574Y-668961D01*
X1778000Y-684831D01*
Y-702009D01*
X1784574Y-717879D01*
X1793988Y-727293D01*
Y-1124116D01*
X1642276Y-1275828D01*
X1184493D01*
X1175079Y-1266414D01*
X1159209Y-1259840D01*
X1142031D01*
X1126161Y-1266414D01*
X1114014Y-1278561D01*
X1107440Y-1294431D01*
Y-1311609D01*
X1114014Y-1327479D01*
X1126161Y-1339626D01*
X1142031Y-1346200D01*
X1159209D01*
X1175079Y-1339626D01*
X1184493Y-1330212D01*
X1653540D01*
X1663946Y-1328143D01*
X1672768Y-1322248D01*
X1840408Y-1154608D01*
X1846303Y-1145786D01*
X1848372Y-1135380D01*
Y-727293D01*
X1857786Y-717879D01*
X1864360Y-702009D01*
Y-684831D01*
X1857786Y-668961D01*
X1845639Y-656814D01*
X1829769Y-650240D01*
D02*
G37*
G36*
X2467506Y-1083400D02*
X2439774D01*
X2412988Y-1090577D01*
X2388972Y-1104443D01*
X2369363Y-1124052D01*
X2355497Y-1148068D01*
X2348320Y-1174854D01*
Y-1202586D01*
X2355497Y-1229372D01*
X2369363Y-1253388D01*
X2388972Y-1272997D01*
X2412988Y-1286863D01*
X2439774Y-1294040D01*
X2467506D01*
X2494292Y-1286863D01*
X2518308Y-1272997D01*
X2537917Y-1253388D01*
X2551783Y-1229372D01*
X2558960Y-1202586D01*
Y-1174854D01*
X2551783Y-1148068D01*
X2537917Y-1124052D01*
X2518308Y-1104443D01*
X2494292Y-1090577D01*
X2467506Y-1083400D01*
D02*
G37*
G36*
X181506D02*
X153774D01*
X126988Y-1090577D01*
X102972Y-1104443D01*
X83363Y-1124052D01*
X69497Y-1148068D01*
X62320Y-1174854D01*
Y-1202586D01*
X69497Y-1229372D01*
X83363Y-1253388D01*
X102972Y-1272997D01*
X126988Y-1286863D01*
X153774Y-1294040D01*
X181506D01*
X208292Y-1286863D01*
X232308Y-1272997D01*
X251917Y-1253388D01*
X265783Y-1229372D01*
X272960Y-1202586D01*
Y-1174854D01*
X265783Y-1148068D01*
X251917Y-1124052D01*
X232308Y-1104443D01*
X208292Y-1090577D01*
X181506Y-1083400D01*
D02*
G37*
G36*
X2467506Y-1337400D02*
X2439774D01*
X2412988Y-1344577D01*
X2388972Y-1358443D01*
X2369363Y-1378052D01*
X2355497Y-1402068D01*
X2348320Y-1428854D01*
Y-1456586D01*
X2355497Y-1483372D01*
X2369363Y-1507388D01*
X2388972Y-1526997D01*
X2412988Y-1540863D01*
X2439774Y-1548040D01*
X2467506D01*
X2494292Y-1540863D01*
X2518308Y-1526997D01*
X2537917Y-1507388D01*
X2551783Y-1483372D01*
X2558960Y-1456586D01*
Y-1428854D01*
X2551783Y-1402068D01*
X2537917Y-1378052D01*
X2518308Y-1358443D01*
X2494292Y-1344577D01*
X2467506Y-1337400D01*
D02*
G37*
G36*
X181506D02*
X153774D01*
X126988Y-1344577D01*
X102972Y-1358443D01*
X83363Y-1378052D01*
X69497Y-1402068D01*
X62320Y-1428854D01*
Y-1456586D01*
X69497Y-1483372D01*
X83363Y-1507388D01*
X102972Y-1526997D01*
X126988Y-1540863D01*
X153774Y-1548040D01*
X181506D01*
X208292Y-1540863D01*
X232308Y-1526997D01*
X251917Y-1507388D01*
X265783Y-1483372D01*
X272960Y-1456586D01*
Y-1428854D01*
X265783Y-1402068D01*
X251917Y-1378052D01*
X232308Y-1358443D01*
X208292Y-1344577D01*
X181506Y-1337400D01*
D02*
G37*
G36*
X2467506Y-1591400D02*
X2439774D01*
X2412988Y-1598577D01*
X2388972Y-1612443D01*
X2369363Y-1632052D01*
X2355497Y-1656068D01*
X2348320Y-1682854D01*
Y-1710586D01*
X2355497Y-1737372D01*
X2369363Y-1761388D01*
X2388972Y-1780997D01*
X2412988Y-1794863D01*
X2439774Y-1802040D01*
X2467506D01*
X2494292Y-1794863D01*
X2518308Y-1780997D01*
X2537917Y-1761388D01*
X2551783Y-1737372D01*
X2558960Y-1710586D01*
Y-1682854D01*
X2551783Y-1656068D01*
X2537917Y-1632052D01*
X2518308Y-1612443D01*
X2494292Y-1598577D01*
X2467506Y-1591400D01*
D02*
G37*
G36*
X181506D02*
X153774D01*
X126988Y-1598577D01*
X102972Y-1612443D01*
X83363Y-1632052D01*
X69497Y-1656068D01*
X62320Y-1682854D01*
Y-1710586D01*
X69497Y-1737372D01*
X83363Y-1761388D01*
X102972Y-1780997D01*
X126988Y-1794863D01*
X153774Y-1802040D01*
X181506D01*
X208292Y-1794863D01*
X232308Y-1780997D01*
X251917Y-1761388D01*
X265783Y-1737372D01*
X272960Y-1710586D01*
Y-1682854D01*
X265783Y-1656068D01*
X251917Y-1632052D01*
X232308Y-1612443D01*
X208292Y-1598577D01*
X181506Y-1591400D01*
D02*
G37*
%LPD*%
D13*
X1150620Y-1303020D02*
X1653540D01*
X1821180Y-1135380D02*
Y-693420D01*
X1653540Y-1303020D02*
X1821180Y-1135380D01*
D14*
X2453640Y-1442720D02*
D03*
Y-1188720D02*
D03*
X1437640Y-175260D02*
D03*
X167640Y-1950720D02*
D03*
Y-1696720D02*
D03*
Y-426720D02*
D03*
Y-680720D02*
D03*
Y-934720D02*
D03*
Y-1188720D02*
D03*
Y-1442720D02*
D03*
X2453640Y-1950720D02*
D03*
Y-1696720D02*
D03*
Y-426720D02*
D03*
Y-680720D02*
D03*
Y-934720D02*
D03*
D15*
X1183640Y-175260D02*
D03*
D16*
X167640Y-172720D02*
D03*
X2453640D02*
D03*
D17*
X1882140Y-876300D02*
D03*
X1028700Y-1066800D02*
D03*
X1104900D02*
D03*
X731520Y-1508760D02*
D03*
Y-1257300D02*
D03*
X1150620Y-1303020D02*
D03*
X1821180Y-693420D02*
D03*
%TF.MD5,fdda7f481de45389472052390247cc6b*%
M02*
