%TF.GenerationSoftware,Altium Limited,Altium Designer,23.2.1 (34)*%
G04 Layer_Physical_Order=1*
G04 Layer_Color=255*
%FSLAX45Y45*%
%MOMM*%
%TF.SameCoordinates,1935415B-2679-425B-B15E-09B645F885D3*%
%TF.FilePolarity,Positive*%
%TF.FileFunction,Copper,L1,Top,Signal*%
%TF.Part,Single*%
G01*
G75*
%TA.AperFunction,SMDPad,CuDef*%
%ADD10R,1.20000X0.60000*%
%ADD11R,0.76200X0.76200*%
%TA.AperFunction,Conductor*%
%ADD12C,0.50800*%
%ADD13C,0.12700*%
%TA.AperFunction,ComponentPad*%
%ADD14C,1.70000*%
%ADD15R,1.70000X1.70000*%
%ADD16R,1.70000X1.70000*%
%TA.AperFunction,ViaPad*%
%ADD17C,0.45720*%
G36*
X1249680Y-1249680D02*
X1089660Y-1409700D01*
Y-1577340D01*
X845820Y-1821180D01*
X60960D01*
Y-1584960D01*
X830580D01*
X868680Y-1546860D01*
Y-1203960D01*
X944880Y-1127760D01*
X1249680D01*
Y-1249680D01*
D02*
G37*
D10*
X1185640Y-974220D02*
D03*
Y-1069220D02*
D03*
Y-1164220D02*
D03*
X1435640D02*
D03*
Y-1069220D02*
D03*
Y-974220D02*
D03*
D11*
X788432Y-1508768D02*
D03*
X918432D02*
D03*
X788432Y-1257308D02*
D03*
X918432D02*
D03*
X1817592Y-632468D02*
D03*
X1687592D02*
D03*
X1817592Y-876308D02*
D03*
X1687592D02*
D03*
D12*
X1817600Y-876300D02*
X1882140D01*
X1817592Y-876308D02*
X1817600Y-876300D01*
X1028700Y-1066800D02*
X1104900D01*
X1183220D02*
X1185640Y-1069220D01*
X1104900Y-1066800D02*
X1183220D01*
X788424Y-1508760D02*
X788432Y-1508768D01*
X731520Y-1508760D02*
X788424D01*
Y-1257300D02*
X788432Y-1257308D01*
X731520Y-1257300D02*
X788424D01*
D13*
X2175140Y-1164220D02*
X2453640Y-1442720D01*
X2334140Y-1069220D02*
X2453640Y-1188720D01*
X1183640Y-972220D02*
X1185640Y-974220D01*
X1183640Y-972220D02*
Y-175260D01*
X1821180Y-693420D02*
Y-636056D01*
X1817592Y-632468D02*
X1821180Y-636056D01*
X1435640Y-1164220D02*
X2175140D01*
X1435640Y-1069220D02*
X2334140D01*
X1687592Y-876308D02*
Y-632468D01*
X1589680Y-974220D02*
X1687592Y-876308D01*
X1435640Y-974220D02*
X1589680D01*
D14*
X2453640Y-1442720D02*
D03*
Y-1188720D02*
D03*
X1437640Y-175260D02*
D03*
X167640Y-1950720D02*
D03*
Y-1696720D02*
D03*
Y-426720D02*
D03*
Y-680720D02*
D03*
Y-934720D02*
D03*
Y-1188720D02*
D03*
Y-1442720D02*
D03*
X2453640Y-1950720D02*
D03*
Y-1696720D02*
D03*
Y-426720D02*
D03*
Y-680720D02*
D03*
Y-934720D02*
D03*
D15*
X1183640Y-175260D02*
D03*
D16*
X167640Y-172720D02*
D03*
X2453640D02*
D03*
D17*
X1882140Y-876300D02*
D03*
X1028700Y-1066800D02*
D03*
X1104900D02*
D03*
X731520Y-1508760D02*
D03*
Y-1257300D02*
D03*
X1150620Y-1303020D02*
D03*
X1821180Y-693420D02*
D03*
%TF.MD5,befaf9d674dd26b20ad2f6149fda7adb*%
M02*
