%TF.GenerationSoftware,Altium Limited,Altium Designer,23.2.1 (34)*%
G04 Layer_Color=65535*
%FSLAX45Y45*%
%MOMM*%
%TF.SameCoordinates,1935415B-2679-425B-B15E-09B645F885D3*%
%TF.FilePolarity,Positive*%
%TF.FileFunction,Legend,Top*%
%TF.Part,Single*%
G01*
G75*
%TA.AperFunction,NonConductor*%
%ADD18C,0.20000*%
%ADD19C,0.15240*%
%ADD20C,0.20320*%
%ADD21C,0.17780*%
%ADD22C,0.25400*%
%ADD23C,0.22860*%
D18*
X1056640Y-48260D02*
X1564640D01*
X1056640Y-302260D02*
Y-48260D01*
Y-302260D02*
X1564640D01*
Y-48260D01*
X1280640Y-924220D02*
X1340640D01*
Y-1214220D02*
Y-924220D01*
X1280640Y-1214220D02*
X1340640D01*
X1280640D02*
Y-924220D01*
X1125640Y-909220D02*
X1245640D01*
X294640Y-2077720D02*
Y-45720D01*
X40640Y-2077720D02*
X294640D01*
X40640D02*
Y-45720D01*
X294640D01*
X2580640Y-2077720D02*
Y-45720D01*
X2326640Y-2077720D02*
X2580640D01*
X2326640D02*
Y-45720D01*
X2580640D01*
D19*
X853440Y-1508760D02*
X861060D01*
X845820D02*
X853440D01*
Y-1531620D02*
Y-1485900D01*
Y-1257300D02*
X861060D01*
X845820D02*
X853440D01*
Y-1280160D02*
Y-1234440D01*
D20*
X891540Y-1573768D02*
X983432D01*
X891540Y-1443768D02*
X983432D01*
X723432Y-1573768D02*
X815340D01*
X723432Y-1443768D02*
X815340D01*
X723432Y-1573768D02*
Y-1443768D01*
X983432Y-1573768D02*
Y-1443768D01*
X891540Y-1322308D02*
X983432D01*
X891540Y-1192308D02*
X983432D01*
X723432Y-1322308D02*
X815340D01*
X723432Y-1192308D02*
X815340D01*
X723432Y-1322308D02*
Y-1192308D01*
X983432Y-1322308D02*
Y-1192308D01*
X1622592Y-697468D02*
X1882592D01*
Y-567468D01*
X1622592D02*
X1882592D01*
X1622592Y-697468D02*
Y-567468D01*
Y-941308D02*
X1882592D01*
Y-811308D01*
X1622592D02*
X1882592D01*
X1622592Y-941308D02*
Y-811308D01*
X1925320Y-924560D02*
Y-856849D01*
X1959176Y-822993D01*
X1993031Y-856849D01*
Y-924560D01*
Y-873777D01*
X1925320D01*
X2026887Y-839921D02*
X2043815Y-822993D01*
X2077671D01*
X2094599Y-839921D01*
Y-907632D01*
X2077671Y-924560D01*
X2043815D01*
X2026887Y-907632D01*
Y-839921D01*
X2128454Y-873777D02*
X2196166D01*
X2230022Y-839921D02*
X2246950Y-822993D01*
X2280805D01*
X2297733Y-839921D01*
Y-907632D01*
X2280805Y-924560D01*
X2246950D01*
X2230022Y-907632D01*
Y-839921D01*
X1925320Y-680720D02*
Y-613009D01*
X1959176Y-579153D01*
X1993031Y-613009D01*
Y-680720D01*
Y-629937D01*
X1925320D01*
X2026887Y-596081D02*
X2043815Y-579153D01*
X2077671D01*
X2094599Y-596081D01*
Y-663792D01*
X2077671Y-680720D01*
X2043815D01*
X2026887Y-663792D01*
Y-596081D01*
X2128454Y-629937D02*
X2196166D01*
X2230022Y-680720D02*
X2263877D01*
X2246950D01*
Y-579153D01*
X2230022Y-596081D01*
D21*
X1358880Y-1940585D02*
X1343645Y-1925349D01*
X1313175D01*
X1297940Y-1940585D01*
Y-2001525D01*
X1313175Y-2016760D01*
X1343645D01*
X1358880Y-2001525D01*
X1389351Y-2016760D02*
X1419821D01*
X1404586D01*
Y-1925349D01*
X1389351D01*
X1465526Y-2016760D02*
X1495996D01*
X1480761D01*
Y-1955820D01*
X1465526D01*
X1602641D02*
X1556936D01*
X1541701Y-1971055D01*
Y-2001525D01*
X1556936Y-2016760D01*
X1602641D01*
X1633112D02*
Y-1925349D01*
Y-1986290D02*
X1678817Y-1955820D01*
X1633112Y-1986290D02*
X1678817Y-2016760D01*
X1815933Y-1925349D02*
Y-2016760D01*
X1861638D01*
X1876873Y-2001525D01*
Y-1986290D01*
X1861638Y-1971055D01*
X1815933D01*
X1861638D01*
X1876873Y-1955820D01*
Y-1940585D01*
X1861638Y-1925349D01*
X1815933D01*
X1922579Y-2016760D02*
X1953049D01*
X1968284Y-2001525D01*
Y-1971055D01*
X1953049Y-1955820D01*
X1922579D01*
X1907343Y-1971055D01*
Y-2001525D01*
X1922579Y-2016760D01*
X2013989Y-1955820D02*
X2044459D01*
X2059694Y-1971055D01*
Y-2016760D01*
X2013989D01*
X1998754Y-2001525D01*
X2013989Y-1986290D01*
X2059694D01*
X2090164Y-1955820D02*
Y-2016760D01*
Y-1986290D01*
X2105400Y-1971055D01*
X2120635Y-1955820D01*
X2135870D01*
X2242515Y-1925349D02*
Y-2016760D01*
X2196810D01*
X2181575Y-2001525D01*
Y-1971055D01*
X2196810Y-1955820D01*
X2242515D01*
D22*
X1297940Y-1696769D02*
Y-1849120D01*
X1374115D01*
X1399507Y-1823728D01*
Y-1722161D01*
X1374115Y-1696769D01*
X1297940D01*
X1450291Y-1849120D02*
Y-1747553D01*
X1501074Y-1696769D01*
X1551858Y-1747553D01*
Y-1849120D01*
Y-1772945D01*
X1450291D01*
X1704209Y-1722161D02*
X1678817Y-1696769D01*
X1628033D01*
X1602641Y-1722161D01*
Y-1823728D01*
X1628033Y-1849120D01*
X1678817D01*
X1704209Y-1823728D01*
X1856559Y-1696769D02*
X1754992D01*
Y-1772945D01*
X1805776Y-1747553D01*
X1831168D01*
X1856559Y-1772945D01*
Y-1823728D01*
X1831168Y-1849120D01*
X1780384D01*
X1754992Y-1823728D01*
X2008910Y-1696769D02*
X1907343D01*
Y-1772945D01*
X1958126Y-1747553D01*
X1983518D01*
X2008910Y-1772945D01*
Y-1823728D01*
X1983518Y-1849120D01*
X1932735D01*
X1907343Y-1823728D01*
X2059694Y-1696769D02*
X2161261D01*
Y-1722161D01*
X2059694Y-1823728D01*
Y-1849120D01*
X2212044D02*
X2262828D01*
X2237436D01*
Y-1696769D01*
X2212044Y-1722161D01*
D23*
X1396967Y-398821D02*
X1371575Y-373429D01*
X1320792D01*
X1295400Y-398821D01*
Y-500388D01*
X1320792Y-525780D01*
X1371575D01*
X1396967Y-500388D01*
Y-449605D01*
X1346183D01*
X1447751Y-525780D02*
Y-373429D01*
X1549318Y-525780D01*
Y-373429D01*
X1600101D02*
Y-525780D01*
X1676277D01*
X1701669Y-500388D01*
Y-398821D01*
X1676277Y-373429D01*
X1600101D01*
X952500D02*
Y-474997D01*
X1003283Y-525780D01*
X1054067Y-474997D01*
Y-373429D01*
X1181026D02*
X1130243D01*
X1104851Y-398821D01*
Y-500388D01*
X1130243Y-525780D01*
X1181026D01*
X1206418Y-500388D01*
Y-398821D01*
X1181026Y-373429D01*
%TF.MD5,311228618ff6c7bc46b11217cec829c6*%
M02*
