%TF.GenerationSoftware,Altium Limited,Altium Designer,23.2.1 (34)*%
G04 Layer_Color=16711935*
%FSLAX45Y45*%
%MOMM*%
%TF.SameCoordinates,A812FC76-EFF7-42A6-A9F1-56CA2D28D9A5*%
%TF.FilePolarity,Negative*%
%TF.FileFunction,Soldermask,Bot*%
%TF.Part,Single*%
G01*
G75*
%TA.AperFunction,SMDPad,CuDef*%
%ADD20C,0.90000*%
%TA.AperFunction,ComponentPad*%
G04:AMPARAMS|DCode=32|XSize=1.1mm|YSize=2.05mm|CornerRadius=0.55mm|HoleSize=0mm|Usage=FLASHONLY|Rotation=270.000|XOffset=0mm|YOffset=0mm|HoleType=Round|Shape=RoundedRectangle|*
%AMROUNDEDRECTD32*
21,1,1.10000,0.95000,0,0,270.0*
21,1,0.00000,2.05000,0,0,270.0*
1,1,1.10000,-0.47500,0.00000*
1,1,1.10000,-0.47500,0.00000*
1,1,1.10000,0.47500,0.00000*
1,1,1.10000,0.47500,0.00000*
%
%ADD32ROUNDEDRECTD32*%
G04:AMPARAMS|DCode=33|XSize=0.6mm|YSize=1.15mm|CornerRadius=0.3mm|HoleSize=0mm|Usage=FLASHONLY|Rotation=270.000|XOffset=0mm|YOffset=0mm|HoleType=Round|Shape=RoundedRectangle|*
%AMROUNDEDRECTD33*
21,1,0.60000,0.55000,0,0,270.0*
21,1,0.00000,1.15000,0,0,270.0*
1,1,0.60000,-0.27500,0.00000*
1,1,0.60000,-0.27500,0.00000*
1,1,0.60000,0.27500,0.00000*
1,1,0.60000,0.27500,0.00000*
%
%ADD33ROUNDEDRECTD33*%
%ADD58C,1.85000*%
%ADD59R,1.85000X1.85000*%
%ADD60R,1.85000X1.85000*%
%TA.AperFunction,ViaPad*%
%ADD61C,0.65000*%
G36*
X653999Y-3065700D02*
X659433Y-3069496D01*
X668184Y-3079452D01*
X674320Y-3091201D01*
X677489Y-3104073D01*
X677500Y-3110700D01*
Y-3121640D01*
X669126Y-3141855D01*
X653655Y-3157327D01*
X633440Y-3165700D01*
X567500D01*
Y-3165700D01*
X556560Y-3165700D01*
X536345Y-3157327D01*
X520873Y-3141855D01*
X512500Y-3121640D01*
Y-3110700D01*
X512510Y-3104073D01*
X515679Y-3091201D01*
X521815Y-3079452D01*
X530567Y-3069496D01*
X536000Y-3065700D01*
X654000Y-3065700D01*
X653999Y-3065700D01*
D02*
G37*
G36*
X622500Y-2151700D02*
X633440D01*
X653655Y-2160073D01*
X669126Y-2175545D01*
X677500Y-2195760D01*
Y-2206700D01*
X677489Y-2213328D01*
X674320Y-2226199D01*
X668184Y-2237949D01*
X659433Y-2247905D01*
X653999Y-2251700D01*
X536000Y-2251700D01*
X530567Y-2247904D01*
X521815Y-2237949D01*
X515679Y-2226199D01*
X512510Y-2213328D01*
X512500Y-2206700D01*
Y-2195760D01*
X520873Y-2175545D01*
X536345Y-2160074D01*
X556560Y-2151700D01*
X567500Y-2151701D01*
Y-2151700D01*
X622500Y-2151700D01*
D02*
G37*
G36*
X654000Y-2251700D02*
X653999D01*
D01*
X654000D01*
D02*
G37*
D20*
X595000Y-2201700D02*
D03*
Y-3115700D02*
D03*
D32*
X295000Y-2206700D02*
D03*
Y-3110700D02*
D03*
D33*
X595000Y-2206700D02*
D03*
Y-3110700D02*
D03*
D58*
X2463800Y-1905000D02*
D03*
Y-1651000D02*
D03*
Y-381000D02*
D03*
Y-635000D02*
D03*
Y-889000D02*
D03*
Y-1143000D02*
D03*
Y-1397000D02*
D03*
X177800Y-1905000D02*
D03*
Y-1651000D02*
D03*
Y-381000D02*
D03*
Y-635000D02*
D03*
Y-889000D02*
D03*
Y-1143000D02*
D03*
Y-1397000D02*
D03*
X937260Y-127000D02*
D03*
X1191260D02*
D03*
X1445260D02*
D03*
X1699260D02*
D03*
X1953260D02*
D03*
D59*
X2463800D02*
D03*
X177800D02*
D03*
D60*
X2207260D02*
D03*
D61*
X533400Y-2578100D02*
D03*
X525780Y-2692400D02*
D03*
X1501770Y-990500D02*
D03*
X1391770D02*
D03*
X1281770D02*
D03*
X1171770D02*
D03*
X1501770Y-880500D02*
D03*
X1391770D02*
D03*
X1281770D02*
D03*
X1171770D02*
D03*
X1501770Y-770500D02*
D03*
X1391770D02*
D03*
X1281770D02*
D03*
X1171770D02*
D03*
X1501770Y-660500D02*
D03*
X1391770D02*
D03*
X1281770D02*
D03*
X1171770D02*
D03*
X1371600Y-381000D02*
D03*
X1460500D02*
D03*
X2413000Y-3543300D02*
D03*
X1854200Y-825500D02*
D03*
X1270000Y-3429000D02*
D03*
X228600Y-3556000D02*
D03*
X1028700Y-2171700D02*
D03*
X736600Y-889000D02*
D03*
X711200Y-749300D02*
D03*
X723900Y-1168400D02*
D03*
X622300D02*
D03*
X520700D02*
D03*
X736600Y-1663700D02*
D03*
X533400Y-1651000D02*
D03*
X1234440Y-1420380D02*
D03*
X1447800Y-1435100D02*
D03*
X1498600Y-1333500D02*
D03*
X2159000Y-1765300D02*
D03*
X927100Y-1270000D02*
D03*
X2286000Y-393700D02*
D03*
%TF.MD5,6a8f6f45ab23b0379ee5fe2958d25626*%
M02*
