%TF.GenerationSoftware,Altium Limited,Altium Designer,23.2.1 (34)*%
G04 Layer_Color=8421504*
%FSLAX45Y45*%
%MOMM*%
%TF.SameCoordinates,A812FC76-EFF7-42A6-A9F1-56CA2D28D9A5*%
%TF.FilePolarity,Positive*%
%TF.FileFunction,Paste,Top*%
%TF.Part,Single*%
G01*
G75*
%TA.AperFunction,SMDPad,CuDef*%
%ADD10O,2.03200X0.60960*%
%ADD11R,4.50000X4.50000*%
%ADD12O,0.25000X0.90000*%
%ADD13O,0.90000X0.25000*%
%ADD14R,1.00000X0.30000*%
G04:AMPARAMS|DCode=15|XSize=0.55mm|YSize=0.5mm|CornerRadius=0.0625mm|HoleSize=0mm|Usage=FLASHONLY|Rotation=270.000|XOffset=0mm|YOffset=0mm|HoleType=Round|Shape=RoundedRectangle|*
%AMROUNDEDRECTD15*
21,1,0.55000,0.37500,0,0,270.0*
21,1,0.42500,0.50000,0,0,270.0*
1,1,0.12500,-0.18750,-0.21250*
1,1,0.12500,-0.18750,0.21250*
1,1,0.12500,0.18750,0.21250*
1,1,0.12500,0.18750,-0.21250*
%
%ADD15ROUNDEDRECTD15*%
G04:AMPARAMS|DCode=16|XSize=0.55mm|YSize=0.5mm|CornerRadius=0.0625mm|HoleSize=0mm|Usage=FLASHONLY|Rotation=180.000|XOffset=0mm|YOffset=0mm|HoleType=Round|Shape=RoundedRectangle|*
%AMROUNDEDRECTD16*
21,1,0.55000,0.37500,0,0,180.0*
21,1,0.42500,0.50000,0,0,180.0*
1,1,0.12500,-0.21250,0.18750*
1,1,0.12500,0.21250,0.18750*
1,1,0.12500,0.21250,-0.18750*
1,1,0.12500,-0.21250,-0.18750*
%
%ADD16ROUNDEDRECTD16*%
%ADD17R,0.80000X1.70000*%
G04:AMPARAMS|DCode=18|XSize=1.65712mm|YSize=0.61213mm|CornerRadius=0.30606mm|HoleSize=0mm|Usage=FLASHONLY|Rotation=0.000|XOffset=0mm|YOffset=0mm|HoleType=Round|Shape=RoundedRectangle|*
%AMROUNDEDRECTD18*
21,1,1.65712,0.00000,0,0,0.0*
21,1,1.04499,0.61213,0,0,0.0*
1,1,0.61213,0.52250,0.00000*
1,1,0.61213,-0.52250,0.00000*
1,1,0.61213,-0.52250,0.00000*
1,1,0.61213,0.52250,0.00000*
%
%ADD18ROUNDEDRECTD18*%
%ADD19R,1.65712X0.61213*%
%ADD21R,2.65000X1.75000*%
%ADD22R,0.65000X1.10000*%
%ADD23R,0.80000X0.80000*%
G04:AMPARAMS|DCode=24|XSize=0.76mm|YSize=0.6604mm|CornerRadius=0.08255mm|HoleSize=0mm|Usage=FLASHONLY|Rotation=90.000|XOffset=0mm|YOffset=0mm|HoleType=Round|Shape=RoundedRectangle|*
%AMROUNDEDRECTD24*
21,1,0.76000,0.49530,0,0,90.0*
21,1,0.59490,0.66040,0,0,90.0*
1,1,0.16510,0.24765,0.29745*
1,1,0.16510,0.24765,-0.29745*
1,1,0.16510,-0.24765,-0.29745*
1,1,0.16510,-0.24765,0.29745*
%
%ADD24ROUNDEDRECTD24*%
G04:AMPARAMS|DCode=25|XSize=0.76mm|YSize=0.6604mm|CornerRadius=0.08255mm|HoleSize=0mm|Usage=FLASHONLY|Rotation=0.000|XOffset=0mm|YOffset=0mm|HoleType=Round|Shape=RoundedRectangle|*
%AMROUNDEDRECTD25*
21,1,0.76000,0.49530,0,0,0.0*
21,1,0.59490,0.66040,0,0,0.0*
1,1,0.16510,0.29745,-0.24765*
1,1,0.16510,-0.29745,-0.24765*
1,1,0.16510,-0.29745,0.24765*
1,1,0.16510,0.29745,0.24765*
%
%ADD25ROUNDEDRECTD25*%
G04:AMPARAMS|DCode=26|XSize=0.8mm|YSize=1.8mm|CornerRadius=0.2mm|HoleSize=0mm|Usage=FLASHONLY|Rotation=90.000|XOffset=0mm|YOffset=0mm|HoleType=Round|Shape=RoundedRectangle|*
%AMROUNDEDRECTD26*
21,1,0.80000,1.40000,0,0,90.0*
21,1,0.40000,1.80000,0,0,90.0*
1,1,0.40000,0.70000,0.20000*
1,1,0.40000,0.70000,-0.20000*
1,1,0.40000,-0.70000,-0.20000*
1,1,0.40000,-0.70000,0.20000*
%
%ADD26ROUNDEDRECTD26*%
D10*
X1023879Y-2857500D02*
D03*
Y-2730500D02*
D03*
X1587500Y-3111500D02*
D03*
X1023879D02*
D03*
Y-2222500D02*
D03*
Y-2349500D02*
D03*
Y-2476500D02*
D03*
Y-2603500D02*
D03*
Y-2984500D02*
D03*
X1587500D02*
D03*
Y-2857500D02*
D03*
Y-2730500D02*
D03*
Y-2603500D02*
D03*
Y-2476500D02*
D03*
Y-2349500D02*
D03*
Y-2222500D02*
D03*
D11*
X1336770Y-825500D02*
D03*
D12*
X1061770Y-485500D02*
D03*
X1111770D02*
D03*
X1161770D02*
D03*
X1211770D02*
D03*
X1261770D02*
D03*
X1311770D02*
D03*
X1361770D02*
D03*
X1411770D02*
D03*
X1461770D02*
D03*
X1511770D02*
D03*
X1561770D02*
D03*
X1611770D02*
D03*
Y-1165500D02*
D03*
X1561770D02*
D03*
X1511770D02*
D03*
X1461770D02*
D03*
X1411770D02*
D03*
X1361770D02*
D03*
X1311770D02*
D03*
X1261770D02*
D03*
X1211770D02*
D03*
X1161770D02*
D03*
X1111770D02*
D03*
X1061770D02*
D03*
D13*
X1676770Y-550500D02*
D03*
Y-600500D02*
D03*
Y-650500D02*
D03*
Y-700500D02*
D03*
Y-750500D02*
D03*
Y-800500D02*
D03*
Y-850500D02*
D03*
Y-900500D02*
D03*
Y-950500D02*
D03*
Y-1000500D02*
D03*
Y-1050500D02*
D03*
Y-1100500D02*
D03*
X996770D02*
D03*
Y-1050500D02*
D03*
Y-1000500D02*
D03*
Y-950500D02*
D03*
Y-900500D02*
D03*
Y-850500D02*
D03*
Y-800500D02*
D03*
Y-750500D02*
D03*
Y-700500D02*
D03*
Y-650500D02*
D03*
Y-600500D02*
D03*
Y-550500D02*
D03*
D14*
X635000Y-2683700D02*
D03*
Y-2633700D02*
D03*
Y-2583700D02*
D03*
Y-2733700D02*
D03*
Y-2283700D02*
D03*
Y-2383700D02*
D03*
Y-2483700D02*
D03*
Y-2833700D02*
D03*
Y-2933700D02*
D03*
Y-3033700D02*
D03*
Y-2983700D02*
D03*
Y-2883700D02*
D03*
Y-2783700D02*
D03*
Y-2533700D02*
D03*
Y-2433700D02*
D03*
Y-2333700D02*
D03*
D15*
X1885400Y-2222500D02*
D03*
X1975400D02*
D03*
X1885400Y-2374900D02*
D03*
X1975400D02*
D03*
X1340400Y-1651000D02*
D03*
X1250400D02*
D03*
X1340400Y-1346200D02*
D03*
X1250400D02*
D03*
X641900Y-749300D02*
D03*
X551900D02*
D03*
D16*
X1104900Y-3498300D02*
D03*
Y-3588300D02*
D03*
X1854200Y-666200D02*
D03*
Y-756200D02*
D03*
X1270000Y-3588300D02*
D03*
Y-3498300D02*
D03*
X723900Y-3588300D02*
D03*
Y-3498300D02*
D03*
X952500Y-1491700D02*
D03*
Y-1581700D02*
D03*
X533400D02*
D03*
Y-1491700D02*
D03*
D17*
X2062300Y-3543300D02*
D03*
X1722300D02*
D03*
D18*
X2055855Y-2641600D02*
D03*
X1855745Y-2736600D02*
D03*
X2055855Y-3009900D02*
D03*
X1855745Y-3104900D02*
D03*
D19*
Y-2546600D02*
D03*
Y-2914900D02*
D03*
D21*
X521600Y-1879600D02*
D03*
X951600D02*
D03*
D22*
X533900Y-1295400D02*
D03*
X628900D02*
D03*
X723900D02*
D03*
Y-1055400D02*
D03*
X533900D02*
D03*
D23*
X468712Y-3555342D02*
D03*
X318712D02*
D03*
D24*
X1225400Y-1498600D02*
D03*
X1365400D02*
D03*
X539600Y-889000D02*
D03*
X679600D02*
D03*
D25*
X736600Y-1466700D02*
D03*
Y-1606700D02*
D03*
D26*
X564228Y-580572D02*
D03*
Y-70272D02*
D03*
%TF.MD5,a6d9f2fde560923ae7cee37a4f4f54c9*%
M02*
