%TF.GenerationSoftware,Altium Limited,Altium Designer,23.2.1 (34)*%
G04 Layer_Physical_Order=1*
G04 Layer_Color=255*
%FSLAX45Y45*%
%MOMM*%
%TF.SameCoordinates,A812FC76-EFF7-42A6-A9F1-56CA2D28D9A5*%
%TF.FilePolarity,Positive*%
%TF.FileFunction,Copper,L1,Top,Signal*%
%TF.Part,Single*%
G01*
G75*
%TA.AperFunction,SMDPad,CuDef*%
%ADD10O,2.03200X0.60960*%
%ADD11R,4.50000X4.50000*%
%ADD12O,0.25000X0.90000*%
%ADD13O,0.90000X0.25000*%
%ADD14R,1.00000X0.30000*%
G04:AMPARAMS|DCode=15|XSize=0.55mm|YSize=0.5mm|CornerRadius=0.0625mm|HoleSize=0mm|Usage=FLASHONLY|Rotation=270.000|XOffset=0mm|YOffset=0mm|HoleType=Round|Shape=RoundedRectangle|*
%AMROUNDEDRECTD15*
21,1,0.55000,0.37500,0,0,270.0*
21,1,0.42500,0.50000,0,0,270.0*
1,1,0.12500,-0.18750,-0.21250*
1,1,0.12500,-0.18750,0.21250*
1,1,0.12500,0.18750,0.21250*
1,1,0.12500,0.18750,-0.21250*
%
%ADD15ROUNDEDRECTD15*%
G04:AMPARAMS|DCode=16|XSize=0.55mm|YSize=0.5mm|CornerRadius=0.0625mm|HoleSize=0mm|Usage=FLASHONLY|Rotation=180.000|XOffset=0mm|YOffset=0mm|HoleType=Round|Shape=RoundedRectangle|*
%AMROUNDEDRECTD16*
21,1,0.55000,0.37500,0,0,180.0*
21,1,0.42500,0.50000,0,0,180.0*
1,1,0.12500,-0.21250,0.18750*
1,1,0.12500,0.21250,0.18750*
1,1,0.12500,0.21250,-0.18750*
1,1,0.12500,-0.21250,-0.18750*
%
%ADD16ROUNDEDRECTD16*%
%ADD17R,0.80000X1.70000*%
G04:AMPARAMS|DCode=18|XSize=1.65712mm|YSize=0.61213mm|CornerRadius=0.30606mm|HoleSize=0mm|Usage=FLASHONLY|Rotation=0.000|XOffset=0mm|YOffset=0mm|HoleType=Round|Shape=RoundedRectangle|*
%AMROUNDEDRECTD18*
21,1,1.65712,0.00000,0,0,0.0*
21,1,1.04499,0.61213,0,0,0.0*
1,1,0.61213,0.52250,0.00000*
1,1,0.61213,-0.52250,0.00000*
1,1,0.61213,-0.52250,0.00000*
1,1,0.61213,0.52250,0.00000*
%
%ADD18ROUNDEDRECTD18*%
%ADD19R,1.65712X0.61213*%
%ADD20C,0.90000*%
%ADD21R,2.65000X1.75000*%
%ADD22R,0.65000X1.10000*%
%ADD23R,0.80000X0.80000*%
G04:AMPARAMS|DCode=24|XSize=0.76mm|YSize=0.6604mm|CornerRadius=0.08255mm|HoleSize=0mm|Usage=FLASHONLY|Rotation=90.000|XOffset=0mm|YOffset=0mm|HoleType=Round|Shape=RoundedRectangle|*
%AMROUNDEDRECTD24*
21,1,0.76000,0.49530,0,0,90.0*
21,1,0.59490,0.66040,0,0,90.0*
1,1,0.16510,0.24765,0.29745*
1,1,0.16510,0.24765,-0.29745*
1,1,0.16510,-0.24765,-0.29745*
1,1,0.16510,-0.24765,0.29745*
%
%ADD24ROUNDEDRECTD24*%
G04:AMPARAMS|DCode=25|XSize=0.76mm|YSize=0.6604mm|CornerRadius=0.08255mm|HoleSize=0mm|Usage=FLASHONLY|Rotation=0.000|XOffset=0mm|YOffset=0mm|HoleType=Round|Shape=RoundedRectangle|*
%AMROUNDEDRECTD25*
21,1,0.76000,0.49530,0,0,0.0*
21,1,0.59490,0.66040,0,0,0.0*
1,1,0.16510,0.29745,-0.24765*
1,1,0.16510,-0.29745,-0.24765*
1,1,0.16510,-0.29745,0.24765*
1,1,0.16510,0.29745,0.24765*
%
%ADD25ROUNDEDRECTD25*%
G04:AMPARAMS|DCode=26|XSize=0.8mm|YSize=1.8mm|CornerRadius=0.2mm|HoleSize=0mm|Usage=FLASHONLY|Rotation=90.000|XOffset=0mm|YOffset=0mm|HoleType=Round|Shape=RoundedRectangle|*
%AMROUNDEDRECTD26*
21,1,0.80000,1.40000,0,0,90.0*
21,1,0.40000,1.80000,0,0,90.0*
1,1,0.40000,0.70000,0.20000*
1,1,0.40000,0.70000,-0.20000*
1,1,0.40000,-0.70000,-0.20000*
1,1,0.40000,-0.70000,0.20000*
%
%ADD26ROUNDEDRECTD26*%
%TA.AperFunction,Conductor*%
%ADD27C,0.25400*%
%ADD28C,0.10160*%
%ADD29C,0.15240*%
%ADD30C,0.50800*%
%ADD31C,0.20320*%
%TA.AperFunction,ComponentPad*%
G04:AMPARAMS|DCode=32|XSize=1.1mm|YSize=2.05mm|CornerRadius=0.55mm|HoleSize=0mm|Usage=FLASHONLY|Rotation=270.000|XOffset=0mm|YOffset=0mm|HoleType=Round|Shape=RoundedRectangle|*
%AMROUNDEDRECTD32*
21,1,1.10000,0.95000,0,0,270.0*
21,1,0.00000,2.05000,0,0,270.0*
1,1,1.10000,-0.47500,0.00000*
1,1,1.10000,-0.47500,0.00000*
1,1,1.10000,0.47500,0.00000*
1,1,1.10000,0.47500,0.00000*
%
%ADD32ROUNDEDRECTD32*%
G04:AMPARAMS|DCode=33|XSize=0.6mm|YSize=1.15mm|CornerRadius=0.3mm|HoleSize=0mm|Usage=FLASHONLY|Rotation=270.000|XOffset=0mm|YOffset=0mm|HoleType=Round|Shape=RoundedRectangle|*
%AMROUNDEDRECTD33*
21,1,0.60000,0.55000,0,0,270.0*
21,1,0.00000,1.15000,0,0,270.0*
1,1,0.60000,-0.27500,0.00000*
1,1,0.60000,-0.27500,0.00000*
1,1,0.60000,0.27500,0.00000*
1,1,0.60000,0.27500,0.00000*
%
%ADD33ROUNDEDRECTD33*%
%ADD34C,1.70000*%
%ADD35R,1.70000X1.70000*%
%ADD36R,1.70000X1.70000*%
%TA.AperFunction,ViaPad*%
%ADD37C,0.50000*%
G36*
X2613212Y-336817D02*
X2600512Y-342078D01*
X2518756Y-260321D01*
X2512875Y-256392D01*
X2505937Y-255012D01*
X1741623D01*
X1734686Y-256392D01*
X1728805Y-260321D01*
X1563591Y-425535D01*
X1561902Y-428062D01*
X1559646Y-430318D01*
X1552928Y-431655D01*
X1545433Y-436663D01*
X1544011Y-438792D01*
X1529529D01*
X1528107Y-436663D01*
X1520611Y-431655D01*
X1511770Y-429896D01*
X1502928Y-431655D01*
X1495433Y-436663D01*
X1494553Y-437980D01*
X1481853Y-434127D01*
Y-415451D01*
X1483158Y-414910D01*
X1494410Y-403658D01*
X1500500Y-388957D01*
Y-373043D01*
X1494410Y-358342D01*
X1483158Y-347090D01*
X1468457Y-341000D01*
X1452543D01*
X1437842Y-347090D01*
X1426590Y-358342D01*
X1422923Y-367193D01*
X1409177D01*
X1405510Y-358342D01*
X1394258Y-347090D01*
X1379557Y-341000D01*
X1363643D01*
X1348942Y-347090D01*
X1337690Y-358342D01*
X1331600Y-373043D01*
Y-388957D01*
X1337690Y-403658D01*
X1348942Y-414910D01*
X1356426Y-418010D01*
X1355125Y-431218D01*
X1352928Y-431655D01*
X1345433Y-436663D01*
X1344011Y-438792D01*
X1329529D01*
X1328107Y-436663D01*
X1320611Y-431655D01*
X1311770Y-429896D01*
X1302928Y-431655D01*
X1295433Y-436663D01*
X1294011Y-438792D01*
X1279529D01*
X1278107Y-436663D01*
X1270611Y-431655D01*
X1261770Y-429896D01*
X1252928Y-431655D01*
X1245433Y-436663D01*
X1244011Y-438792D01*
X1229529D01*
X1228107Y-436663D01*
X1220611Y-431655D01*
X1211770Y-429896D01*
X1202929Y-431655D01*
X1195433Y-436663D01*
X1194011Y-438792D01*
X1179529D01*
X1178107Y-436663D01*
X1170611Y-431655D01*
X1161770Y-429896D01*
X1152928Y-431655D01*
X1145433Y-436663D01*
X1144011Y-438792D01*
X1129529D01*
X1128107Y-436663D01*
X1120611Y-431655D01*
X1111770Y-429896D01*
X1102928Y-431655D01*
X1095433Y-436663D01*
X1094011Y-438792D01*
X1079529D01*
X1078107Y-436663D01*
X1070612Y-431655D01*
X1061770Y-429896D01*
X1052929Y-431655D01*
X1045433Y-436663D01*
X1040425Y-444158D01*
X1038666Y-453000D01*
Y-516316D01*
X1036404Y-520262D01*
X1031532Y-525134D01*
X1027586Y-527396D01*
X964270D01*
X955428Y-529155D01*
X947933Y-534163D01*
X942925Y-541659D01*
X941166Y-550500D01*
X942925Y-559342D01*
X947933Y-566837D01*
X949482Y-567872D01*
X945629Y-580572D01*
X664979D01*
Y-560572D01*
X662638Y-548804D01*
X655972Y-538828D01*
X645996Y-532162D01*
X634228Y-529821D01*
X494228D01*
X482461Y-532162D01*
X472484Y-538828D01*
X465818Y-548804D01*
X463478Y-560572D01*
Y-600572D01*
X465818Y-612340D01*
X472484Y-622316D01*
X482461Y-628982D01*
X494228Y-631323D01*
X634228D01*
X645996Y-628982D01*
X655972Y-622316D01*
X659639Y-616828D01*
X947927D01*
X947933Y-616837D01*
X950062Y-618259D01*
Y-632741D01*
X947933Y-634163D01*
X942925Y-641658D01*
X941166Y-650500D01*
X942925Y-659341D01*
X947933Y-666837D01*
X950062Y-668259D01*
Y-682741D01*
X947933Y-684163D01*
X942925Y-691659D01*
X941166Y-700500D01*
X942925Y-709341D01*
X947933Y-716837D01*
X950062Y-718259D01*
Y-732741D01*
X947933Y-734163D01*
X942925Y-741658D01*
X941166Y-750500D01*
X942925Y-759341D01*
X947933Y-766837D01*
X950062Y-768259D01*
Y-782741D01*
X947933Y-784163D01*
X942925Y-791658D01*
X941166Y-800500D01*
X942925Y-809341D01*
X947933Y-816837D01*
X950062Y-818259D01*
Y-832741D01*
X947933Y-834163D01*
X942925Y-841658D01*
X941166Y-850500D01*
X942925Y-859341D01*
X947933Y-866837D01*
X950062Y-868259D01*
Y-882741D01*
X947933Y-884163D01*
X942925Y-891658D01*
X941166Y-900500D01*
X942925Y-909341D01*
X947933Y-916837D01*
X950062Y-918259D01*
Y-932741D01*
X948967Y-933472D01*
X947562Y-933752D01*
X941681Y-937681D01*
X914281Y-965081D01*
X910352Y-970962D01*
X908972Y-977900D01*
Y-1234213D01*
X904442Y-1236090D01*
X893190Y-1247342D01*
X887100Y-1262043D01*
Y-1277957D01*
X893190Y-1292658D01*
X904442Y-1303910D01*
X919143Y-1310000D01*
X935057D01*
X949758Y-1303910D01*
X961010Y-1292658D01*
X967100Y-1277957D01*
Y-1262043D01*
X961010Y-1247342D01*
X949758Y-1236090D01*
X945228Y-1234213D01*
Y-1130304D01*
X949184Y-1127024D01*
X957928Y-1122342D01*
X964270Y-1123604D01*
X1027586D01*
X1031532Y-1125866D01*
X1036403Y-1130736D01*
X1038666Y-1134684D01*
Y-1198000D01*
X1040425Y-1206841D01*
X1045433Y-1214337D01*
X1052929Y-1219345D01*
X1061770Y-1221104D01*
X1070612Y-1219345D01*
X1078107Y-1214337D01*
X1079529Y-1212208D01*
X1094011D01*
X1095433Y-1214337D01*
X1102928Y-1219345D01*
X1111770Y-1221104D01*
X1120611Y-1219345D01*
X1128107Y-1214337D01*
X1129529Y-1212208D01*
X1144011D01*
X1145433Y-1214337D01*
X1152928Y-1219345D01*
X1161770Y-1221104D01*
X1170611Y-1219345D01*
X1178107Y-1214337D01*
X1179529Y-1212208D01*
X1194011D01*
X1195433Y-1214337D01*
X1202929Y-1219345D01*
X1211770Y-1221104D01*
X1220611Y-1219345D01*
X1228107Y-1214337D01*
X1229529Y-1212208D01*
X1244011D01*
X1245433Y-1214337D01*
X1252928Y-1219345D01*
X1261770Y-1221104D01*
X1270611Y-1219345D01*
X1278107Y-1214337D01*
X1279529Y-1212208D01*
X1294011D01*
X1295433Y-1214337D01*
X1302928Y-1219345D01*
X1311770Y-1221104D01*
X1320611Y-1219345D01*
X1328107Y-1214337D01*
X1328352Y-1213970D01*
X1341052Y-1217822D01*
Y-1308219D01*
X1321650D01*
X1315247Y-1309492D01*
X1309819Y-1313119D01*
X1306192Y-1318547D01*
X1304918Y-1324950D01*
Y-1367450D01*
X1306192Y-1373853D01*
X1309819Y-1379281D01*
X1315247Y-1382908D01*
X1321650Y-1384181D01*
X1339674D01*
Y-1450270D01*
X1333450Y-1451508D01*
X1327359Y-1455578D01*
X1323289Y-1461670D01*
X1321859Y-1468855D01*
Y-1528345D01*
X1323289Y-1535530D01*
X1327359Y-1541621D01*
X1333450Y-1545691D01*
X1338182Y-1546632D01*
Y-1613019D01*
X1321650D01*
X1315247Y-1614292D01*
X1309819Y-1617919D01*
X1306192Y-1623347D01*
X1304918Y-1629750D01*
Y-1672250D01*
X1306192Y-1678653D01*
X1309819Y-1684081D01*
X1315247Y-1687708D01*
X1321650Y-1688981D01*
X1359150D01*
X1365553Y-1687708D01*
X1370981Y-1684081D01*
X1374608Y-1678653D01*
X1375881Y-1672250D01*
Y-1647449D01*
X1378041Y-1644216D01*
X1379618Y-1636288D01*
Y-1547120D01*
X1390165D01*
X1397350Y-1545691D01*
X1403441Y-1541621D01*
X1407512Y-1535530D01*
X1408941Y-1528345D01*
Y-1477557D01*
X1421641Y-1471217D01*
X1427082Y-1475309D01*
Y-1990528D01*
X1107132Y-2310477D01*
X1094999Y-2308064D01*
X952759D01*
X936902Y-2311218D01*
X923459Y-2320200D01*
X914477Y-2333643D01*
X911323Y-2349500D01*
X914477Y-2365357D01*
X923459Y-2378800D01*
X936902Y-2387782D01*
X952759Y-2390936D01*
X1087809D01*
X1093070Y-2403636D01*
X1086365Y-2410341D01*
X1082435Y-2416222D01*
X1081055Y-2423160D01*
Y-2435064D01*
X952759D01*
X936902Y-2438218D01*
X923459Y-2447200D01*
X914477Y-2460643D01*
X911323Y-2476500D01*
X914477Y-2492357D01*
X923459Y-2505800D01*
X936902Y-2514782D01*
X952759Y-2517936D01*
X1094999D01*
X1110856Y-2514782D01*
X1124299Y-2505800D01*
X1133281Y-2492357D01*
X1136435Y-2476500D01*
X1133281Y-2460643D01*
X1124299Y-2447200D01*
X1118086Y-2443048D01*
X1117396Y-2430585D01*
X1511419Y-2036562D01*
X1515348Y-2030681D01*
X1516728Y-2023743D01*
Y-1369287D01*
X1521258Y-1367410D01*
X1532510Y-1356158D01*
X1538600Y-1341457D01*
Y-1325543D01*
X1532510Y-1310842D01*
X1521258Y-1299590D01*
X1506557Y-1293500D01*
X1490643D01*
X1475942Y-1299590D01*
X1464690Y-1310842D01*
X1458600Y-1325543D01*
Y-1341457D01*
X1464690Y-1356158D01*
X1475942Y-1367410D01*
X1480472Y-1369287D01*
Y-1394610D01*
X1467772Y-1400077D01*
X1455757Y-1395100D01*
X1439843D01*
X1425142Y-1401190D01*
X1413890Y-1412442D01*
X1407800Y-1427143D01*
Y-1443057D01*
X1407892Y-1443278D01*
X1397633Y-1451697D01*
X1397350Y-1451508D01*
X1390165Y-1450079D01*
X1381110D01*
Y-1350232D01*
X1380832Y-1348836D01*
X1380911Y-1348719D01*
X1382488Y-1340790D01*
Y-1217823D01*
X1395188Y-1213970D01*
X1395433Y-1214337D01*
X1402928Y-1219345D01*
X1411770Y-1221104D01*
X1420611Y-1219345D01*
X1428107Y-1214337D01*
X1429529Y-1212208D01*
X1444011D01*
X1445433Y-1214337D01*
X1452929Y-1219345D01*
X1461770Y-1221104D01*
X1470611Y-1219345D01*
X1478107Y-1214337D01*
X1479529Y-1212208D01*
X1494011D01*
X1495433Y-1214337D01*
X1502928Y-1219345D01*
X1511770Y-1221104D01*
X1520611Y-1219345D01*
X1528107Y-1214337D01*
X1529529Y-1212208D01*
X1544011D01*
X1545433Y-1214337D01*
X1546174Y-1214832D01*
X1548951Y-1218989D01*
X2064672Y-1734709D01*
Y-2600035D01*
X2011450D01*
X2007629Y-2594418D01*
X2005522Y-2587335D01*
X2008108Y-2583464D01*
X2009488Y-2576527D01*
Y-2402732D01*
X2009608Y-2402553D01*
X2010881Y-2396150D01*
Y-2353650D01*
X2009608Y-2347247D01*
X2005981Y-2341819D01*
X2000553Y-2338192D01*
X1994150Y-2336919D01*
X1973639D01*
X1968779Y-2325185D01*
X2004179Y-2289786D01*
X2008108Y-2283904D01*
X2009488Y-2276967D01*
Y-2250332D01*
X2009608Y-2250153D01*
X2010881Y-2243750D01*
Y-2201250D01*
X2009608Y-2194847D01*
X2005981Y-2189419D01*
X2000553Y-2185792D01*
X1994150Y-2184519D01*
X1956650D01*
X1950247Y-2185792D01*
X1944819Y-2189419D01*
X1941192Y-2194847D01*
X1939918Y-2201250D01*
Y-2243750D01*
X1941192Y-2250153D01*
X1944819Y-2255581D01*
X1950247Y-2259208D01*
X1956650Y-2260481D01*
X1964248D01*
X1969508Y-2273181D01*
X1917581Y-2325108D01*
X1913652Y-2330989D01*
X1910748Y-2337738D01*
X1904150Y-2336919D01*
X1866650D01*
X1860247Y-2338192D01*
X1854819Y-2341819D01*
X1851192Y-2347247D01*
X1849919Y-2353650D01*
Y-2387244D01*
X1831221Y-2405942D01*
X1831047Y-2406203D01*
X1672437Y-2564812D01*
X1658620Y-2562064D01*
X1516380D01*
X1500523Y-2565218D01*
X1487080Y-2574200D01*
X1478098Y-2587643D01*
X1474944Y-2603500D01*
X1478098Y-2619357D01*
X1487080Y-2632800D01*
X1500523Y-2641782D01*
X1516380Y-2644936D01*
X1658620D01*
X1674477Y-2641782D01*
X1687920Y-2632800D01*
X1694629Y-2622758D01*
X1707267Y-2622034D01*
X1775292Y-2690058D01*
Y-2706416D01*
X1774105Y-2707209D01*
X1765095Y-2720694D01*
X1761931Y-2736600D01*
X1765095Y-2752506D01*
X1774105Y-2765991D01*
X1787590Y-2775001D01*
X1803496Y-2778165D01*
X1907994D01*
X1923901Y-2775001D01*
X1924972Y-2774286D01*
X1937672Y-2781074D01*
Y-2863028D01*
X1926915Y-2873785D01*
X1873787D01*
X1872035Y-2874133D01*
X1762729D01*
Y-2955666D01*
X1948761D01*
Y-2903214D01*
X1968619Y-2883356D01*
X1972548Y-2877475D01*
X1973928Y-2870537D01*
Y-2759564D01*
X1974509Y-2756642D01*
Y-2689681D01*
X1973771Y-2685968D01*
X1977216Y-2682333D01*
X1986047Y-2678897D01*
X1987699Y-2680001D01*
X2003606Y-2683165D01*
X2102966D01*
X2108313Y-2695779D01*
X2105362Y-2698730D01*
X2101432Y-2704611D01*
X2100052Y-2711549D01*
Y-2968335D01*
X2003606D01*
X1987699Y-2971499D01*
X1974215Y-2980509D01*
X1965205Y-2993994D01*
X1962041Y-3009900D01*
X1965205Y-3025806D01*
X1974215Y-3039291D01*
X1987699Y-3048301D01*
X2003606Y-3051465D01*
X2042672D01*
Y-3265691D01*
X1785160Y-3523203D01*
X1772460Y-3520418D01*
Y-3448140D01*
X1672140D01*
Y-3525172D01*
X1498600D01*
X1491662Y-3526552D01*
X1485781Y-3530481D01*
X1430131Y-3586132D01*
X1307981D01*
Y-3569550D01*
X1306708Y-3563147D01*
X1303081Y-3557719D01*
X1297653Y-3554092D01*
X1291250Y-3552818D01*
X1248750D01*
X1242347Y-3554092D01*
X1236919Y-3557719D01*
X1233292Y-3563147D01*
X1232019Y-3569550D01*
Y-3586132D01*
X1142881D01*
Y-3569550D01*
X1141608Y-3563147D01*
X1137981Y-3557719D01*
X1132553Y-3554092D01*
X1126150Y-3552818D01*
X1083650D01*
X1077247Y-3554092D01*
X1071819Y-3557719D01*
X1068192Y-3563147D01*
X1066919Y-3569550D01*
Y-3607050D01*
X1068192Y-3613453D01*
X1071819Y-3618881D01*
X1077247Y-3622508D01*
X1083650Y-3623781D01*
X1126150D01*
X1132553Y-3622508D01*
X1132732Y-3622388D01*
X1242168D01*
X1242347Y-3622508D01*
X1248750Y-3623781D01*
X1291250D01*
X1297653Y-3622508D01*
X1297832Y-3622388D01*
X1437640D01*
X1444578Y-3621008D01*
X1450459Y-3617079D01*
X1506109Y-3561428D01*
X1672140D01*
Y-3638460D01*
X1772460D01*
Y-3561428D01*
X1790700D01*
X1797638Y-3560048D01*
X1803519Y-3556119D01*
X2073619Y-3286019D01*
X2077548Y-3280137D01*
X2078928Y-3273200D01*
Y-3051465D01*
X2108104D01*
X2124010Y-3048301D01*
X2137495Y-3039291D01*
X2146505Y-3025806D01*
X2149669Y-3009900D01*
X2146505Y-2993994D01*
X2137495Y-2980509D01*
X2136308Y-2979716D01*
Y-2719058D01*
X2171819Y-2683548D01*
X2175748Y-2677666D01*
X2177128Y-2670729D01*
Y-1801087D01*
X2181658Y-1799210D01*
X2192910Y-1787958D01*
X2199000Y-1773257D01*
Y-1757343D01*
X2192910Y-1742642D01*
X2181658Y-1731390D01*
X2166957Y-1725300D01*
X2151043D01*
X2136342Y-1731390D01*
X2125090Y-1742642D01*
X2119000Y-1757343D01*
Y-1773257D01*
X2125090Y-1787958D01*
X2136342Y-1799210D01*
X2140872Y-1801087D01*
Y-2599191D01*
X2128172Y-2605979D01*
X2124010Y-2603199D01*
X2108104Y-2600035D01*
X2100928D01*
Y-1727200D01*
X2099548Y-1720262D01*
X2095619Y-1714381D01*
X1614706Y-1233469D01*
X1618886Y-1219688D01*
X1620611Y-1219345D01*
X1628107Y-1214337D01*
X1633115Y-1206841D01*
X1634874Y-1198000D01*
Y-1134684D01*
X1637138Y-1130736D01*
X1642006Y-1125868D01*
X1645954Y-1123604D01*
X1709270D01*
X1718111Y-1121845D01*
X1725607Y-1116837D01*
X1730615Y-1109341D01*
X1732374Y-1100500D01*
X1730615Y-1091658D01*
X1725607Y-1084163D01*
X1723478Y-1082741D01*
Y-1068259D01*
X1725607Y-1066837D01*
X1730615Y-1059341D01*
X1732374Y-1050500D01*
X1730615Y-1041658D01*
X1725607Y-1034163D01*
X1723478Y-1032741D01*
Y-1018259D01*
X1725607Y-1016837D01*
X1730615Y-1009341D01*
X1732374Y-1000500D01*
X1730615Y-991658D01*
X1725607Y-984163D01*
X1723478Y-982741D01*
Y-968259D01*
X1725607Y-966837D01*
X1730615Y-959341D01*
X1732374Y-950500D01*
X1730615Y-941659D01*
X1725607Y-934163D01*
X1723478Y-932741D01*
Y-918259D01*
X1725607Y-916837D01*
X1730615Y-909341D01*
X1732374Y-900500D01*
X1730615Y-891658D01*
X1725607Y-884163D01*
X1723478Y-882741D01*
Y-868259D01*
X1725607Y-866837D01*
X1730615Y-859341D01*
X1732374Y-850500D01*
X1730615Y-841658D01*
X1725607Y-834163D01*
X1723478Y-832741D01*
Y-818259D01*
X1725607Y-816837D01*
X1730615Y-809341D01*
X1732374Y-800500D01*
X1730615Y-791658D01*
X1725607Y-784163D01*
X1723478Y-782741D01*
Y-768259D01*
X1725607Y-766837D01*
X1730615Y-759341D01*
X1732374Y-750500D01*
X1730615Y-741658D01*
X1725607Y-734163D01*
X1723478Y-732741D01*
Y-718259D01*
X1725607Y-716837D01*
X1730615Y-709341D01*
X1732374Y-700500D01*
X1730615Y-691659D01*
X1725607Y-684163D01*
X1730853Y-672394D01*
X1734288Y-668628D01*
X1816219D01*
Y-684950D01*
X1817492Y-691353D01*
X1821119Y-696781D01*
X1826547Y-700408D01*
X1832950Y-701682D01*
X1875450D01*
X1881853Y-700408D01*
X1887281Y-696781D01*
X1890908Y-691353D01*
X1892181Y-684950D01*
Y-668628D01*
X2374294D01*
X2375125Y-671730D01*
X2387653Y-693430D01*
X2405370Y-711147D01*
X2427070Y-723675D01*
X2451272Y-730160D01*
X2476328D01*
X2500530Y-723675D01*
X2522230Y-711147D01*
X2538292Y-695085D01*
X2550992Y-697426D01*
Y-773631D01*
X2515598Y-809025D01*
X2500530Y-800325D01*
X2476328Y-793840D01*
X2451272D01*
X2427070Y-800325D01*
X2405370Y-812853D01*
X2387653Y-830570D01*
X2375125Y-852270D01*
X2368640Y-876472D01*
Y-901528D01*
X2375125Y-925730D01*
X2387653Y-947430D01*
X2405370Y-965147D01*
X2427070Y-977675D01*
X2451272Y-984160D01*
X2476328D01*
X2500530Y-977675D01*
X2522230Y-965147D01*
X2539947Y-947430D01*
X2552475Y-925730D01*
X2558960Y-901528D01*
Y-876472D01*
X2552475Y-852270D01*
X2541916Y-833981D01*
X2569739Y-806159D01*
X2581472Y-811019D01*
Y-997151D01*
X2515598Y-1063025D01*
X2500530Y-1054325D01*
X2476328Y-1047840D01*
X2451272D01*
X2427070Y-1054325D01*
X2405370Y-1066853D01*
X2387653Y-1084570D01*
X2375125Y-1106270D01*
X2368640Y-1130472D01*
Y-1155528D01*
X2375125Y-1179730D01*
X2387653Y-1201430D01*
X2405370Y-1219147D01*
X2427070Y-1231675D01*
X2451272Y-1238160D01*
X2476328D01*
X2500530Y-1231675D01*
X2522230Y-1219147D01*
X2539947Y-1201430D01*
X2552475Y-1179730D01*
X2558960Y-1155528D01*
Y-1130472D01*
X2552475Y-1106270D01*
X2541916Y-1087981D01*
X2600512Y-1029385D01*
X2613212Y-1034646D01*
X2613212Y-3862892D01*
X25848Y-3862893D01*
X25848Y-23308D01*
X73474D01*
X82640Y-31840D01*
X82640Y-36008D01*
Y-222160D01*
X272960D01*
Y-36008D01*
X272960Y-31840D01*
X282126Y-23308D01*
X460698D01*
X467486Y-36008D01*
X465818Y-38504D01*
X463478Y-50272D01*
Y-90272D01*
X465818Y-102040D01*
X472484Y-112016D01*
X482461Y-118682D01*
X494228Y-121023D01*
X634228D01*
X645996Y-118682D01*
X655972Y-112016D01*
X662638Y-102040D01*
X664979Y-90272D01*
Y-50272D01*
X662638Y-38504D01*
X660970Y-36008D01*
X667759Y-23308D01*
X907506D01*
X909178Y-36008D01*
X900530Y-38325D01*
X878830Y-50853D01*
X861113Y-68570D01*
X848585Y-90270D01*
X842100Y-114472D01*
Y-139528D01*
X848585Y-163730D01*
X861113Y-185430D01*
X878830Y-203147D01*
X900530Y-215675D01*
X924732Y-222160D01*
X949788D01*
X973990Y-215675D01*
X995690Y-203147D01*
X1013407Y-185430D01*
X1025935Y-163730D01*
X1032420Y-139528D01*
Y-114472D01*
X1025935Y-90270D01*
X1013407Y-68570D01*
X995690Y-50853D01*
X973990Y-38325D01*
X965342Y-36008D01*
X967014Y-23308D01*
X1161506D01*
X1163178Y-36008D01*
X1154530Y-38325D01*
X1132830Y-50853D01*
X1115113Y-68570D01*
X1102585Y-90270D01*
X1096100Y-114472D01*
Y-139528D01*
X1102585Y-163730D01*
X1115113Y-185430D01*
X1132830Y-203147D01*
X1154530Y-215675D01*
X1178732Y-222160D01*
X1203788D01*
X1227990Y-215675D01*
X1249690Y-203147D01*
X1267407Y-185430D01*
X1279935Y-163730D01*
X1286420Y-139528D01*
Y-114472D01*
X1279935Y-90270D01*
X1267407Y-68570D01*
X1249690Y-50853D01*
X1227990Y-38325D01*
X1219342Y-36008D01*
X1221014Y-23308D01*
X1415506D01*
X1417178Y-36008D01*
X1408530Y-38325D01*
X1386830Y-50853D01*
X1369113Y-68570D01*
X1356585Y-90270D01*
X1350100Y-114472D01*
Y-139528D01*
X1356585Y-163730D01*
X1369113Y-185430D01*
X1386830Y-203147D01*
X1408530Y-215675D01*
X1432732Y-222160D01*
X1457788D01*
X1481990Y-215675D01*
X1503690Y-203147D01*
X1521407Y-185430D01*
X1533935Y-163730D01*
X1540420Y-139528D01*
Y-114472D01*
X1533935Y-90270D01*
X1521407Y-68570D01*
X1503690Y-50853D01*
X1481990Y-38325D01*
X1473342Y-36008D01*
X1475014Y-23308D01*
X1669506Y-23308D01*
X1671178Y-36008D01*
X1662530Y-38325D01*
X1640830Y-50853D01*
X1623113Y-68570D01*
X1610585Y-90270D01*
X1604100Y-114472D01*
Y-139528D01*
X1610585Y-163730D01*
X1623113Y-185430D01*
X1640830Y-203147D01*
X1662530Y-215675D01*
X1686732Y-222160D01*
X1711788D01*
X1735990Y-215675D01*
X1757690Y-203147D01*
X1775407Y-185430D01*
X1787935Y-163730D01*
X1794420Y-139528D01*
Y-114472D01*
X1787935Y-90270D01*
X1775407Y-68570D01*
X1757690Y-50853D01*
X1735990Y-38325D01*
X1727342Y-36008D01*
X1729014Y-23308D01*
X1923506D01*
X1925178Y-36008D01*
X1916530Y-38325D01*
X1894830Y-50853D01*
X1877113Y-68570D01*
X1864585Y-90270D01*
X1858100Y-114472D01*
Y-139528D01*
X1864585Y-163730D01*
X1877113Y-185430D01*
X1894830Y-203147D01*
X1916530Y-215675D01*
X1940732Y-222160D01*
X1965788D01*
X1989990Y-215675D01*
X2011690Y-203147D01*
X2029407Y-185430D01*
X2041935Y-163730D01*
X2048420Y-139528D01*
Y-114472D01*
X2041935Y-90270D01*
X2029407Y-68570D01*
X2011690Y-50853D01*
X1989990Y-38325D01*
X1981342Y-36008D01*
X1983014Y-23308D01*
X2102934D01*
X2112100Y-36008D01*
Y-222160D01*
X2302420D01*
Y-36008D01*
X2302420Y-31840D01*
X2311586Y-23308D01*
X2359474D01*
X2368640Y-36008D01*
Y-222160D01*
X2558960D01*
Y-36008D01*
X2558960Y-31840D01*
X2568126Y-23308D01*
X2613212D01*
Y-336817D01*
D02*
G37*
%LPC*%
G36*
X190328Y-285840D02*
X165272D01*
X141070Y-292325D01*
X119370Y-304853D01*
X101653Y-322570D01*
X89125Y-344270D01*
X82640Y-368472D01*
Y-393528D01*
X89125Y-417730D01*
X101653Y-439430D01*
X119370Y-457147D01*
X141070Y-469675D01*
X165272Y-476160D01*
X190328D01*
X214530Y-469675D01*
X236230Y-457147D01*
X253947Y-439430D01*
X266475Y-417730D01*
X272960Y-393528D01*
Y-368472D01*
X266475Y-344270D01*
X253947Y-322570D01*
X236230Y-304853D01*
X214530Y-292325D01*
X190328Y-285840D01*
D02*
G37*
G36*
X719157Y-709300D02*
X703243D01*
X688542Y-715390D01*
X687111Y-716821D01*
X672481Y-716219D01*
X667053Y-712592D01*
X660650Y-711319D01*
X623150D01*
X616747Y-712592D01*
X611319Y-716219D01*
X607692Y-721647D01*
X606418Y-728050D01*
Y-770550D01*
X607692Y-776953D01*
X611319Y-782381D01*
X616747Y-786008D01*
X623150Y-787281D01*
X660650D01*
X667053Y-786008D01*
X672481Y-782381D01*
X687111Y-781779D01*
X688542Y-783210D01*
X703243Y-789300D01*
X719157D01*
X733858Y-783210D01*
X745110Y-771958D01*
X751200Y-757257D01*
Y-741343D01*
X745110Y-726642D01*
X733858Y-715390D01*
X719157Y-709300D01*
D02*
G37*
G36*
X190328Y-539840D02*
X165272D01*
X141070Y-546325D01*
X119370Y-558853D01*
X101653Y-576570D01*
X89125Y-598270D01*
X82640Y-622472D01*
Y-647528D01*
X89125Y-671730D01*
X101653Y-693430D01*
X119370Y-711147D01*
X141070Y-723675D01*
X165272Y-730160D01*
X190328D01*
X214530Y-723675D01*
X236230Y-711147D01*
X253947Y-693430D01*
X266475Y-671730D01*
X272960Y-647528D01*
Y-622472D01*
X266475Y-598270D01*
X253947Y-576570D01*
X236230Y-558853D01*
X214530Y-546325D01*
X190328Y-539840D01*
D02*
G37*
G36*
X570650Y-711319D02*
X556980D01*
Y-744220D01*
X587382D01*
Y-728050D01*
X586108Y-721647D01*
X582481Y-716219D01*
X577053Y-712592D01*
X570650Y-711319D01*
D02*
G37*
G36*
X546820D02*
X533150D01*
X526747Y-712592D01*
X521319Y-716219D01*
X517692Y-721647D01*
X516419Y-728050D01*
Y-744220D01*
X546820D01*
Y-711319D01*
D02*
G37*
G36*
X587382Y-754380D02*
X556980D01*
Y-787281D01*
X570650D01*
X577053Y-786008D01*
X582481Y-782381D01*
X586108Y-776953D01*
X587382Y-770550D01*
Y-754380D01*
D02*
G37*
G36*
X546820D02*
X516419D01*
Y-770550D01*
X517692Y-776953D01*
X521319Y-782381D01*
X526747Y-786008D01*
X533150Y-787281D01*
X546820D01*
Y-754380D01*
D02*
G37*
G36*
X1875450Y-720718D02*
X1832950D01*
X1826547Y-721992D01*
X1821119Y-725619D01*
X1817492Y-731047D01*
X1816219Y-737450D01*
Y-774950D01*
X1817492Y-781353D01*
X1821119Y-786781D01*
X1821721Y-801411D01*
X1820290Y-802842D01*
X1814200Y-817543D01*
Y-833457D01*
X1820290Y-848158D01*
X1831542Y-859410D01*
X1846243Y-865500D01*
X1862157D01*
X1876858Y-859410D01*
X1888110Y-848158D01*
X1894200Y-833457D01*
Y-817543D01*
X1888110Y-802842D01*
X1886679Y-801411D01*
X1887281Y-786781D01*
X1890908Y-781353D01*
X1892181Y-774950D01*
Y-737450D01*
X1890908Y-731047D01*
X1887281Y-725619D01*
X1881853Y-721992D01*
X1875450Y-720718D01*
D02*
G37*
G36*
X564365Y-840479D02*
X544679D01*
Y-883920D01*
X583141D01*
Y-859255D01*
X581711Y-852070D01*
X577641Y-845978D01*
X571550Y-841908D01*
X564365Y-840479D01*
D02*
G37*
G36*
X534519D02*
X514835D01*
X507650Y-841908D01*
X501559Y-845978D01*
X497488Y-852070D01*
X496059Y-859255D01*
Y-883920D01*
X534519D01*
Y-840479D01*
D02*
G37*
G36*
X704365D02*
X654835D01*
X647650Y-841908D01*
X641559Y-845978D01*
X637489Y-852070D01*
X636059Y-859255D01*
Y-918745D01*
X637489Y-925930D01*
X641559Y-932021D01*
X647650Y-936091D01*
X654835Y-937520D01*
X704365D01*
X711550Y-936091D01*
X717641Y-932021D01*
X721607Y-926086D01*
X728643Y-929000D01*
X744557D01*
X759258Y-922910D01*
X770510Y-911658D01*
X776600Y-896957D01*
Y-881043D01*
X770510Y-866342D01*
X759258Y-855090D01*
X744557Y-849000D01*
X728643D01*
X721608Y-851914D01*
X717641Y-845978D01*
X711550Y-841908D01*
X704365Y-840479D01*
D02*
G37*
G36*
X583141Y-894080D02*
X544679D01*
Y-937520D01*
X564365D01*
X571550Y-936091D01*
X577641Y-932021D01*
X581711Y-925930D01*
X583141Y-918745D01*
Y-894080D01*
D02*
G37*
G36*
X534519D02*
X496059D01*
Y-918745D01*
X497488Y-925930D01*
X501559Y-932021D01*
X507650Y-936091D01*
X514835Y-937520D01*
X534519D01*
Y-894080D01*
D02*
G37*
G36*
X190328Y-793840D02*
X165272D01*
X141070Y-800325D01*
X119370Y-812853D01*
X101653Y-830570D01*
X89125Y-852270D01*
X82640Y-876472D01*
Y-901528D01*
X89125Y-925730D01*
X101653Y-947430D01*
X119370Y-965147D01*
X141070Y-977675D01*
X165272Y-984160D01*
X190328D01*
X214530Y-977675D01*
X236230Y-965147D01*
X253947Y-947430D01*
X266475Y-925730D01*
X272960Y-901528D01*
Y-876472D01*
X266475Y-852270D01*
X253947Y-830570D01*
X236230Y-812853D01*
X214530Y-800325D01*
X190328Y-793840D01*
D02*
G37*
G36*
X576560Y-990240D02*
X538980D01*
Y-1050321D01*
X576560D01*
Y-990240D01*
D02*
G37*
G36*
X528820D02*
X491240D01*
Y-1050321D01*
X528820D01*
Y-990240D01*
D02*
G37*
G36*
X766560D02*
X681240D01*
Y-1119303D01*
X576560D01*
Y-1060481D01*
X533900D01*
X491240D01*
Y-1120560D01*
X491240Y-1120560D01*
X490811Y-1121162D01*
X487524Y-1122524D01*
X484303Y-1130299D01*
X484303Y-1130300D01*
X484303Y-1130386D01*
Y-1151746D01*
X480700Y-1160443D01*
Y-1176357D01*
X484303Y-1185054D01*
Y-1219200D01*
X487524Y-1226976D01*
X491240Y-1230241D01*
Y-1360560D01*
X497643D01*
Y-1439483D01*
X353060D01*
X339185Y-1442243D01*
X327423Y-1450103D01*
X327422Y-1450103D01*
X214955Y-1562570D01*
X214530Y-1562325D01*
X190328Y-1555840D01*
X165272D01*
X141070Y-1562325D01*
X119370Y-1574853D01*
X101653Y-1592570D01*
X89125Y-1614270D01*
X82640Y-1638472D01*
Y-1663528D01*
X89125Y-1687730D01*
X101653Y-1709430D01*
X119370Y-1727147D01*
X141070Y-1739675D01*
X165272Y-1746160D01*
X190328D01*
X214530Y-1739675D01*
X236230Y-1727147D01*
X253947Y-1709430D01*
X266475Y-1687730D01*
X272960Y-1663528D01*
Y-1638472D01*
X266475Y-1614270D01*
X266230Y-1613845D01*
X368078Y-1511997D01*
X495726D01*
X496692Y-1516853D01*
X500319Y-1522281D01*
X505747Y-1525908D01*
X512150Y-1527182D01*
X554650D01*
X561053Y-1525908D01*
X566481Y-1522281D01*
X570108Y-1516853D01*
X570757Y-1513590D01*
X823182D01*
X884628Y-1575037D01*
X884629Y-1575037D01*
X889431Y-1578246D01*
X915235Y-1604049D01*
X915792Y-1606853D01*
X916243Y-1607528D01*
Y-1781940D01*
X808940D01*
Y-1977260D01*
X1094260D01*
Y-1781940D01*
X988757D01*
Y-1607528D01*
X989208Y-1606853D01*
X990481Y-1600450D01*
Y-1562950D01*
X989208Y-1556547D01*
X985581Y-1551119D01*
X980153Y-1547492D01*
X973750Y-1546218D01*
X961940D01*
X956582Y-1539497D01*
X962041Y-1527182D01*
X973750D01*
X980153Y-1525908D01*
X985581Y-1522281D01*
X989208Y-1516853D01*
X990481Y-1510450D01*
Y-1472950D01*
X989208Y-1466547D01*
X988757Y-1465872D01*
Y-1422401D01*
X988757Y-1422400D01*
X985997Y-1408525D01*
X978137Y-1396763D01*
X978137Y-1396762D01*
X851137Y-1269763D01*
X839375Y-1261903D01*
X825500Y-1259143D01*
X825499Y-1259143D01*
X766560D01*
Y-1230241D01*
X769776Y-1226976D01*
X772997Y-1219200D01*
Y-1130594D01*
X772997Y-1130300D01*
X772997Y-1130299D01*
X769776Y-1122524D01*
X767135Y-1121430D01*
X766560Y-1120560D01*
X766560Y-1120560D01*
Y-990240D01*
D02*
G37*
G36*
X190328Y-1047840D02*
X165272D01*
X141070Y-1054325D01*
X119370Y-1066853D01*
X101653Y-1084570D01*
X89125Y-1106270D01*
X82640Y-1130472D01*
Y-1155528D01*
X89125Y-1179730D01*
X101653Y-1201430D01*
X119370Y-1219147D01*
X141070Y-1231675D01*
X165272Y-1238160D01*
X190328D01*
X214530Y-1231675D01*
X236230Y-1219147D01*
X253947Y-1201430D01*
X266475Y-1179730D01*
X272960Y-1155528D01*
Y-1130472D01*
X266475Y-1106270D01*
X253947Y-1084570D01*
X236230Y-1066853D01*
X214530Y-1054325D01*
X190328Y-1047840D01*
D02*
G37*
G36*
X2476328Y-1301840D02*
X2451272D01*
X2427070Y-1308325D01*
X2405370Y-1320853D01*
X2387653Y-1338570D01*
X2375125Y-1360270D01*
X2368640Y-1384472D01*
Y-1409528D01*
X2375125Y-1433730D01*
X2387653Y-1455430D01*
X2405370Y-1473147D01*
X2427070Y-1485675D01*
X2451272Y-1492160D01*
X2476328D01*
X2500530Y-1485675D01*
X2522230Y-1473147D01*
X2539947Y-1455430D01*
X2552475Y-1433730D01*
X2558960Y-1409528D01*
Y-1384472D01*
X2552475Y-1360270D01*
X2539947Y-1338570D01*
X2522230Y-1320853D01*
X2500530Y-1308325D01*
X2476328Y-1301840D01*
D02*
G37*
G36*
X190328D02*
X165272D01*
X141070Y-1308325D01*
X119370Y-1320853D01*
X101653Y-1338570D01*
X89125Y-1360270D01*
X82640Y-1384472D01*
Y-1409528D01*
X89125Y-1433730D01*
X101653Y-1455430D01*
X119370Y-1473147D01*
X141070Y-1485675D01*
X165272Y-1492160D01*
X190328D01*
X214530Y-1485675D01*
X236230Y-1473147D01*
X253947Y-1455430D01*
X266475Y-1433730D01*
X272960Y-1409528D01*
Y-1384472D01*
X266475Y-1360270D01*
X253947Y-1338570D01*
X236230Y-1320853D01*
X214530Y-1308325D01*
X190328Y-1301840D01*
D02*
G37*
G36*
X1269150Y-1308219D02*
X1231650D01*
X1225247Y-1309492D01*
X1219819Y-1313119D01*
X1216192Y-1318547D01*
X1214919Y-1324950D01*
Y-1334269D01*
X1212906Y-1337281D01*
X1211132Y-1346200D01*
Y-1387119D01*
X1200530Y-1397722D01*
X1194440Y-1412423D01*
Y-1428336D01*
X1198298Y-1437651D01*
X1193811Y-1450474D01*
X1192005Y-1452474D01*
X1187359Y-1455578D01*
X1183288Y-1461670D01*
X1181859Y-1468855D01*
Y-1528345D01*
X1183288Y-1535530D01*
X1187359Y-1541621D01*
X1193450Y-1545691D01*
X1200635Y-1547120D01*
X1250165D01*
X1257350Y-1545691D01*
X1263441Y-1541621D01*
X1267511Y-1535530D01*
X1268941Y-1528345D01*
Y-1468855D01*
X1267511Y-1461670D01*
X1263441Y-1455579D01*
X1262757Y-1448631D01*
X1268350Y-1443038D01*
X1274440Y-1428336D01*
Y-1412423D01*
X1268350Y-1397722D01*
X1267510Y-1396881D01*
X1268203Y-1391514D01*
X1272170Y-1383581D01*
X1275553Y-1382908D01*
X1280981Y-1379281D01*
X1284608Y-1373853D01*
X1285882Y-1367450D01*
Y-1324950D01*
X1284608Y-1318547D01*
X1280981Y-1313119D01*
X1275553Y-1309492D01*
X1269150Y-1308219D01*
D02*
G37*
G36*
Y-1613019D02*
X1255480D01*
Y-1645920D01*
X1285882D01*
Y-1629750D01*
X1284608Y-1623347D01*
X1280981Y-1617919D01*
X1275553Y-1614292D01*
X1269150Y-1613019D01*
D02*
G37*
G36*
X1245320D02*
X1231650D01*
X1225247Y-1614292D01*
X1219819Y-1617919D01*
X1216192Y-1623347D01*
X1214919Y-1629750D01*
Y-1645920D01*
X1245320D01*
Y-1613019D01*
D02*
G37*
G36*
X1285882Y-1656080D02*
X1255480D01*
Y-1688981D01*
X1269150D01*
X1275553Y-1687708D01*
X1280981Y-1684081D01*
X1284608Y-1678653D01*
X1285882Y-1672250D01*
Y-1656080D01*
D02*
G37*
G36*
X1245320D02*
X1214919D01*
Y-1672250D01*
X1216192Y-1678653D01*
X1219819Y-1684081D01*
X1225247Y-1687708D01*
X1231650Y-1688981D01*
X1245320D01*
Y-1656080D01*
D02*
G37*
G36*
X554650Y-1546218D02*
X512150D01*
X505747Y-1547492D01*
X500319Y-1551119D01*
X496692Y-1556547D01*
X495419Y-1562950D01*
Y-1600450D01*
X496692Y-1606853D01*
X500319Y-1612281D01*
X500921Y-1626911D01*
X499490Y-1628342D01*
X493400Y-1643043D01*
Y-1658957D01*
X499490Y-1673658D01*
X510742Y-1684910D01*
X525443Y-1691000D01*
X541357D01*
X556058Y-1684910D01*
X567310Y-1673658D01*
X573400Y-1658957D01*
Y-1643043D01*
X567310Y-1628342D01*
X565879Y-1626911D01*
X566481Y-1612281D01*
X570108Y-1606853D01*
X571381Y-1600450D01*
Y-1562950D01*
X570108Y-1556547D01*
X566481Y-1551119D01*
X561053Y-1547492D01*
X554650Y-1546218D01*
D02*
G37*
G36*
X766345Y-1563159D02*
X706855D01*
X699670Y-1564589D01*
X693579Y-1568659D01*
X689509Y-1574750D01*
X688080Y-1581935D01*
Y-1631465D01*
X689509Y-1638650D01*
X693579Y-1644741D01*
X699514Y-1648707D01*
X696600Y-1655743D01*
Y-1671657D01*
X702690Y-1686358D01*
X713942Y-1697610D01*
X728643Y-1703700D01*
X744557D01*
X759258Y-1697610D01*
X770510Y-1686358D01*
X776600Y-1671657D01*
Y-1655743D01*
X773686Y-1648708D01*
X779622Y-1644741D01*
X783692Y-1638650D01*
X785121Y-1631465D01*
Y-1581935D01*
X783692Y-1574750D01*
X779622Y-1568659D01*
X773530Y-1564589D01*
X766345Y-1563159D01*
D02*
G37*
G36*
X2476328Y-1555840D02*
X2451272D01*
X2427070Y-1562325D01*
X2405370Y-1574853D01*
X2387653Y-1592570D01*
X2375125Y-1614270D01*
X2368640Y-1638472D01*
Y-1663528D01*
X2375125Y-1687730D01*
X2387653Y-1709430D01*
X2405370Y-1727147D01*
X2427070Y-1739675D01*
X2451272Y-1746160D01*
X2476328D01*
X2500530Y-1739675D01*
X2522230Y-1727147D01*
X2539947Y-1709430D01*
X2552475Y-1687730D01*
X2558960Y-1663528D01*
Y-1638472D01*
X2552475Y-1614270D01*
X2539947Y-1592570D01*
X2522230Y-1574853D01*
X2500530Y-1562325D01*
X2476328Y-1555840D01*
D02*
G37*
G36*
Y-1809840D02*
X2451272D01*
X2427070Y-1816325D01*
X2405370Y-1828853D01*
X2387653Y-1846570D01*
X2375125Y-1868270D01*
X2368640Y-1892472D01*
Y-1917528D01*
X2375125Y-1941730D01*
X2387653Y-1963430D01*
X2405370Y-1981147D01*
X2427070Y-1993675D01*
X2451272Y-2000160D01*
X2476328D01*
X2500530Y-1993675D01*
X2522230Y-1981147D01*
X2539947Y-1963430D01*
X2552475Y-1941730D01*
X2558960Y-1917528D01*
Y-1892472D01*
X2552475Y-1868270D01*
X2539947Y-1846570D01*
X2522230Y-1828853D01*
X2500530Y-1816325D01*
X2476328Y-1809840D01*
D02*
G37*
G36*
X190328D02*
X165272D01*
X141070Y-1816325D01*
X119370Y-1828853D01*
X101653Y-1846570D01*
X89125Y-1868270D01*
X82640Y-1892472D01*
Y-1917528D01*
X89125Y-1941730D01*
X101653Y-1963430D01*
X119370Y-1981147D01*
X141070Y-1993675D01*
X165272Y-2000160D01*
X190328D01*
X214530Y-1993675D01*
X236230Y-1981147D01*
X253947Y-1963430D01*
X266475Y-1941730D01*
X272960Y-1917528D01*
Y-1892472D01*
X266475Y-1868270D01*
X253947Y-1846570D01*
X236230Y-1828853D01*
X214530Y-1816325D01*
X190328Y-1809840D01*
D02*
G37*
G36*
X664260Y-1781940D02*
X378940D01*
Y-1977260D01*
X470343D01*
Y-2036301D01*
X418462Y-2088182D01*
X410603Y-2099944D01*
X407843Y-2113819D01*
X407843Y-2113821D01*
Y-2163958D01*
X395143Y-2168269D01*
X388973Y-2160227D01*
X375361Y-2149783D01*
X359510Y-2143217D01*
X342500Y-2140978D01*
X247500D01*
X230490Y-2143217D01*
X214639Y-2149783D01*
X201027Y-2160227D01*
X190583Y-2173839D01*
X184017Y-2189690D01*
X181778Y-2206700D01*
X184017Y-2223710D01*
X190583Y-2239561D01*
X201027Y-2253173D01*
X214639Y-2263617D01*
X230490Y-2270183D01*
X247500Y-2272422D01*
X342500D01*
X359510Y-2270183D01*
X375361Y-2263617D01*
X388973Y-2253173D01*
X395143Y-2245131D01*
X407843Y-2249442D01*
Y-2505579D01*
X355363Y-2558060D01*
X347503Y-2569822D01*
X344743Y-2583697D01*
X344743Y-2583698D01*
Y-2726664D01*
X344743Y-2726666D01*
X347503Y-2740540D01*
X355363Y-2752303D01*
X536996Y-2933937D01*
X536997Y-2933937D01*
X548759Y-2941797D01*
X562634Y-2944557D01*
X574840D01*
Y-2966206D01*
X574125Y-2966922D01*
X569072Y-2974483D01*
X567298Y-2983403D01*
Y-3054663D01*
X567098Y-3054703D01*
X536000D01*
X532938Y-3055971D01*
X529702Y-3056685D01*
X524269Y-3060481D01*
X523534Y-3061632D01*
X522307Y-3062235D01*
X513555Y-3072191D01*
X513115Y-3073484D01*
X512067Y-3074361D01*
X505931Y-3086111D01*
X505810Y-3087472D01*
X505001Y-3088572D01*
X501832Y-3101443D01*
X502038Y-3102794D01*
X501513Y-3104056D01*
X501503Y-3110683D01*
X501506Y-3110692D01*
X501503Y-3110700D01*
X501503Y-3121640D01*
X502340Y-3123661D01*
Y-3125849D01*
X510713Y-3146064D01*
X512260Y-3147610D01*
X513097Y-3149631D01*
X528569Y-3165103D01*
X530590Y-3165940D01*
X532137Y-3167487D01*
X552351Y-3175860D01*
X554539D01*
X556560Y-3176697D01*
X567500Y-3176697D01*
X567500Y-3176697D01*
X633440D01*
X635461Y-3175860D01*
X637648D01*
X657863Y-3167487D01*
X659409Y-3165940D01*
X661431Y-3165103D01*
X676903Y-3149631D01*
X677740Y-3147610D01*
X679286Y-3146064D01*
X687660Y-3125849D01*
Y-3123662D01*
X688497Y-3121640D01*
Y-3110701D01*
X688497Y-3110700D01*
X688493Y-3110692D01*
X688497Y-3110683D01*
X688487Y-3104055D01*
X687962Y-3102794D01*
X688168Y-3101443D01*
X684998Y-3088572D01*
X684189Y-3087472D01*
X684068Y-3086111D01*
X677932Y-3074361D01*
X676884Y-3073484D01*
X676444Y-3072191D01*
X675889Y-3071560D01*
X681635Y-3058860D01*
X695160D01*
Y-3008860D01*
Y-2915825D01*
X696657Y-2908300D01*
X695160Y-2900775D01*
Y-2776715D01*
X706893Y-2771855D01*
X809019Y-2873981D01*
X816581Y-2879034D01*
X825500Y-2880808D01*
X919455D01*
X923459Y-2886800D01*
X936902Y-2895782D01*
X952759Y-2898936D01*
X1094999D01*
X1110856Y-2895782D01*
X1124299Y-2886800D01*
X1133281Y-2873357D01*
X1136435Y-2857500D01*
X1133281Y-2841643D01*
X1124299Y-2828200D01*
X1110856Y-2819218D01*
X1094999Y-2816064D01*
X952759D01*
X936902Y-2819218D01*
X923459Y-2828200D01*
X919455Y-2834192D01*
X835155D01*
X767192Y-2766230D01*
X768361Y-2760751D01*
X772731Y-2753808D01*
X919455D01*
X923459Y-2759800D01*
X936902Y-2768782D01*
X952759Y-2771936D01*
X1094999D01*
X1110856Y-2768782D01*
X1124299Y-2759800D01*
X1133281Y-2746357D01*
X1136435Y-2730500D01*
X1133281Y-2714643D01*
X1124299Y-2701200D01*
X1110856Y-2692218D01*
X1094999Y-2689064D01*
X952759D01*
X936902Y-2692218D01*
X923459Y-2701200D01*
X919455Y-2707192D01*
X779496D01*
X739523Y-2667219D01*
X731961Y-2662166D01*
X723042Y-2660392D01*
X695160D01*
Y-2558860D01*
Y-2458860D01*
Y-2358860D01*
Y-2258540D01*
X681635D01*
X675889Y-2245840D01*
X676444Y-2245209D01*
X676884Y-2243916D01*
X677932Y-2243039D01*
X684068Y-2231290D01*
X684189Y-2229928D01*
X684998Y-2228828D01*
X688167Y-2215957D01*
X687962Y-2214607D01*
X688486Y-2213345D01*
X688497Y-2206717D01*
X688493Y-2206709D01*
X688497Y-2206700D01*
Y-2195760D01*
X687660Y-2193739D01*
Y-2191552D01*
X679286Y-2171337D01*
X677740Y-2169790D01*
X676902Y-2167769D01*
X661431Y-2152297D01*
X659409Y-2151460D01*
X657863Y-2149913D01*
X637648Y-2141540D01*
X635461D01*
X633440Y-2140703D01*
X567500Y-2140703D01*
X567499Y-2140703D01*
X556560Y-2140703D01*
X554539Y-2141540D01*
X552351D01*
X532136Y-2149914D01*
X530590Y-2151460D01*
X528569Y-2152297D01*
X513097Y-2167769D01*
X512260Y-2169790D01*
X510713Y-2171337D01*
X502340Y-2191552D01*
Y-2193739D01*
X501503Y-2195760D01*
Y-2206700D01*
X501506Y-2206709D01*
X501503Y-2206717D01*
X501513Y-2213345D01*
X502038Y-2214606D01*
X501832Y-2215957D01*
X505001Y-2228828D01*
X505810Y-2229929D01*
X505931Y-2231290D01*
X512067Y-2243039D01*
X513115Y-2243916D01*
X513555Y-2245209D01*
X522307Y-2255165D01*
X523533Y-2255768D01*
X524268Y-2256919D01*
X529702Y-2260715D01*
X532937Y-2261429D01*
X536000Y-2262697D01*
X559041D01*
X573592Y-2277248D01*
Y-2337498D01*
X574840Y-2343772D01*
Y-2382512D01*
X573592Y-2388786D01*
Y-2410392D01*
X551368D01*
X542449Y-2412166D01*
X534887Y-2417219D01*
X492090Y-2460016D01*
X480357Y-2455156D01*
Y-2128837D01*
X532237Y-2076957D01*
X532237Y-2076957D01*
X540097Y-2065194D01*
X542857Y-2051319D01*
X542857Y-2051318D01*
Y-1977260D01*
X664260D01*
Y-1781940D01*
D02*
G37*
G36*
X1658620Y-2181064D02*
X1592580D01*
Y-2217420D01*
X1699046D01*
X1696902Y-2206643D01*
X1687920Y-2193200D01*
X1674477Y-2184218D01*
X1658620Y-2181064D01*
D02*
G37*
G36*
X1582420D02*
X1516380D01*
X1500523Y-2184218D01*
X1487080Y-2193200D01*
X1478098Y-2206643D01*
X1475954Y-2217420D01*
X1582420D01*
Y-2181064D01*
D02*
G37*
G36*
X1699046Y-2227580D02*
X1592580D01*
Y-2263936D01*
X1658620D01*
X1674477Y-2260782D01*
X1687920Y-2251800D01*
X1696902Y-2238357D01*
X1699046Y-2227580D01*
D02*
G37*
G36*
X1582420D02*
X1475954D01*
X1478098Y-2238357D01*
X1487080Y-2251800D01*
X1500523Y-2260782D01*
X1516380Y-2263936D01*
X1582420D01*
Y-2227580D01*
D02*
G37*
G36*
X1036657Y-2131700D02*
X1020743D01*
X1006042Y-2137790D01*
X994790Y-2149042D01*
X988700Y-2163743D01*
Y-2179656D01*
X987760Y-2181064D01*
X952759D01*
X936902Y-2184218D01*
X923459Y-2193200D01*
X914477Y-2206643D01*
X911323Y-2222500D01*
X914477Y-2238357D01*
X923459Y-2251800D01*
X936902Y-2260782D01*
X952759Y-2263936D01*
X1094999D01*
X1110856Y-2260782D01*
X1124299Y-2251800D01*
X1133281Y-2238357D01*
X1136435Y-2222500D01*
X1133281Y-2206643D01*
X1124299Y-2193200D01*
X1110856Y-2184218D01*
X1094999Y-2181064D01*
X1069640D01*
X1068700Y-2179656D01*
Y-2163743D01*
X1062610Y-2149042D01*
X1051358Y-2137790D01*
X1036657Y-2131700D01*
D02*
G37*
G36*
X1658620Y-2308064D02*
X1516380D01*
X1500523Y-2311218D01*
X1487080Y-2320200D01*
X1478098Y-2333643D01*
X1474944Y-2349500D01*
X1478098Y-2365357D01*
X1487080Y-2378800D01*
X1500523Y-2387782D01*
X1516380Y-2390936D01*
X1658620D01*
X1674477Y-2387782D01*
X1687920Y-2378800D01*
X1696902Y-2365357D01*
X1700056Y-2349500D01*
X1696902Y-2333643D01*
X1687920Y-2320200D01*
X1674477Y-2311218D01*
X1658620Y-2308064D01*
D02*
G37*
G36*
X1094999Y-2562064D02*
X1028959D01*
Y-2598420D01*
X1135425D01*
X1133281Y-2587643D01*
X1124299Y-2574200D01*
X1110856Y-2565218D01*
X1094999Y-2562064D01*
D02*
G37*
G36*
X1018799D02*
X952759D01*
X936902Y-2565218D01*
X923459Y-2574200D01*
X914477Y-2587643D01*
X912333Y-2598420D01*
X1018799D01*
Y-2562064D01*
D02*
G37*
G36*
X1135425Y-2608580D02*
X1028959D01*
Y-2644936D01*
X1094999D01*
X1110856Y-2641782D01*
X1124299Y-2632800D01*
X1133281Y-2619357D01*
X1135425Y-2608580D01*
D02*
G37*
G36*
X1018799D02*
X912333D01*
X914477Y-2619357D01*
X923459Y-2632800D01*
X936902Y-2641782D01*
X952759Y-2644936D01*
X1018799D01*
Y-2608580D01*
D02*
G37*
G36*
X1658620Y-2689064D02*
X1516380D01*
X1500523Y-2692218D01*
X1487080Y-2701200D01*
X1478098Y-2714643D01*
X1474944Y-2730500D01*
X1478098Y-2746357D01*
X1487080Y-2759800D01*
X1500523Y-2768782D01*
X1516380Y-2771936D01*
X1658620D01*
X1674477Y-2768782D01*
X1687920Y-2759800D01*
X1696902Y-2746357D01*
X1700056Y-2730500D01*
X1696902Y-2714643D01*
X1687920Y-2701200D01*
X1674477Y-2692218D01*
X1658620Y-2689064D01*
D02*
G37*
G36*
Y-2816064D02*
X1516380D01*
X1500523Y-2819218D01*
X1487080Y-2828200D01*
X1478098Y-2841643D01*
X1474944Y-2857500D01*
X1478098Y-2873357D01*
X1487080Y-2886800D01*
X1500523Y-2895782D01*
X1516380Y-2898936D01*
X1658620D01*
X1674477Y-2895782D01*
X1687920Y-2886800D01*
X1696902Y-2873357D01*
X1700056Y-2857500D01*
X1696902Y-2841643D01*
X1687920Y-2828200D01*
X1674477Y-2819218D01*
X1658620Y-2816064D01*
D02*
G37*
G36*
Y-2943064D02*
X1516380D01*
X1500523Y-2946218D01*
X1487080Y-2955200D01*
X1478098Y-2968643D01*
X1474944Y-2984500D01*
X1478098Y-3000357D01*
X1487080Y-3013800D01*
X1500523Y-3022782D01*
X1516380Y-3025936D01*
X1658620D01*
X1674477Y-3022782D01*
X1687920Y-3013800D01*
X1696902Y-3000357D01*
X1700056Y-2984500D01*
X1696902Y-2968643D01*
X1687920Y-2955200D01*
X1674477Y-2946218D01*
X1658620Y-2943064D01*
D02*
G37*
G36*
X1094999D02*
X952759D01*
X936902Y-2946218D01*
X923459Y-2955200D01*
X914477Y-2968643D01*
X911323Y-2984500D01*
X914477Y-3000357D01*
X923459Y-3013800D01*
X936902Y-3022782D01*
X952759Y-3025936D01*
X1094999D01*
X1110856Y-3022782D01*
X1124299Y-3013800D01*
X1133281Y-3000357D01*
X1136435Y-2984500D01*
X1133281Y-2968643D01*
X1124299Y-2955200D01*
X1110856Y-2946218D01*
X1094999Y-2943064D01*
D02*
G37*
G36*
X1904150Y-2184519D02*
X1866650D01*
X1860247Y-2185792D01*
X1854819Y-2189419D01*
X1851192Y-2194847D01*
X1849919Y-2201250D01*
Y-2209068D01*
X1849001Y-2209681D01*
X1831221Y-2227461D01*
X1827292Y-2233342D01*
X1825912Y-2240280D01*
Y-2263684D01*
X1656960Y-2432635D01*
X1655337Y-2435064D01*
X1516380D01*
X1500523Y-2438218D01*
X1487080Y-2447200D01*
X1478098Y-2460643D01*
X1474944Y-2476500D01*
X1478098Y-2492357D01*
X1485526Y-2503474D01*
X1422281Y-2566718D01*
X1418352Y-2572599D01*
X1416972Y-2579536D01*
Y-3136900D01*
X1418352Y-3143838D01*
X1422281Y-3149719D01*
X1473081Y-3200519D01*
X1478962Y-3204448D01*
X1485900Y-3205828D01*
X1701800D01*
X1708738Y-3204448D01*
X1714619Y-3200519D01*
X1778146Y-3136991D01*
X1787590Y-3143301D01*
X1803496Y-3146465D01*
X1907994D01*
X1923901Y-3143301D01*
X1937385Y-3134291D01*
X1946395Y-3120806D01*
X1949559Y-3104900D01*
X1946395Y-3088994D01*
X1937385Y-3075509D01*
X1923901Y-3066499D01*
X1907994Y-3063335D01*
X1803496D01*
X1787590Y-3066499D01*
X1774105Y-3075509D01*
X1765095Y-3088994D01*
X1762392Y-3102580D01*
X1759049Y-3104814D01*
X1694291Y-3169572D01*
X1493409D01*
X1453228Y-3129391D01*
Y-2587045D01*
X1522337Y-2517936D01*
X1658620D01*
X1674477Y-2514782D01*
X1687920Y-2505800D01*
X1696902Y-2492357D01*
X1700056Y-2476500D01*
X1696902Y-2460643D01*
X1690223Y-2450647D01*
X1856859Y-2284011D01*
X1860788Y-2278130D01*
X1862168Y-2271193D01*
Y-2264160D01*
X1866650Y-2260481D01*
X1904150D01*
X1910553Y-2259208D01*
X1915981Y-2255581D01*
X1919608Y-2250153D01*
X1920882Y-2243750D01*
Y-2201250D01*
X1919608Y-2194847D01*
X1915981Y-2189419D01*
X1910553Y-2185792D01*
X1904150Y-2184519D01*
D02*
G37*
G36*
X1658620Y-3070064D02*
X1516380D01*
X1500523Y-3073218D01*
X1487080Y-3082200D01*
X1478098Y-3095643D01*
X1474944Y-3111500D01*
X1478098Y-3127357D01*
X1487080Y-3140800D01*
X1500523Y-3149782D01*
X1516380Y-3152936D01*
X1658620D01*
X1674477Y-3149782D01*
X1687920Y-3140800D01*
X1696902Y-3127357D01*
X1700056Y-3111500D01*
X1696902Y-3095643D01*
X1687920Y-3082200D01*
X1674477Y-3073218D01*
X1658620Y-3070064D01*
D02*
G37*
G36*
X1094999D02*
X952759D01*
X936902Y-3073218D01*
X923459Y-3082200D01*
X914477Y-3095643D01*
X911323Y-3111500D01*
X914477Y-3127357D01*
X923459Y-3140800D01*
X936902Y-3149782D01*
X952759Y-3152936D01*
X1094999D01*
X1110856Y-3149782D01*
X1124299Y-3140800D01*
X1133281Y-3127357D01*
X1136435Y-3111500D01*
X1133281Y-3095643D01*
X1124299Y-3082200D01*
X1110856Y-3073218D01*
X1094999Y-3070064D01*
D02*
G37*
G36*
X342500Y-3044978D02*
X247500D01*
X230490Y-3047217D01*
X214639Y-3053783D01*
X201027Y-3064228D01*
X190583Y-3077839D01*
X184017Y-3093690D01*
X181778Y-3110700D01*
X184017Y-3127710D01*
X190583Y-3143561D01*
X201027Y-3157173D01*
X214639Y-3167617D01*
X230490Y-3174183D01*
X247500Y-3176422D01*
X342500D01*
X359510Y-3174183D01*
X375361Y-3167617D01*
X388973Y-3157173D01*
X399417Y-3143561D01*
X405983Y-3127710D01*
X408222Y-3110700D01*
X405983Y-3093690D01*
X399417Y-3077839D01*
X388973Y-3064228D01*
X375361Y-3053783D01*
X359510Y-3047217D01*
X342500Y-3044978D01*
D02*
G37*
G36*
X1126150Y-3462819D02*
X1109980D01*
Y-3493221D01*
X1142881D01*
Y-3479550D01*
X1141608Y-3473147D01*
X1137981Y-3467719D01*
X1132553Y-3464092D01*
X1126150Y-3462819D01*
D02*
G37*
G36*
X1099820D02*
X1083650D01*
X1077247Y-3464092D01*
X1071819Y-3467719D01*
X1068192Y-3473147D01*
X1066919Y-3479550D01*
Y-3493221D01*
X1099820D01*
Y-3462819D01*
D02*
G37*
G36*
X368872Y-3505182D02*
X268552D01*
Y-3521423D01*
X255852Y-3526684D01*
X251258Y-3522090D01*
X236557Y-3516000D01*
X220643D01*
X205942Y-3522090D01*
X194690Y-3533342D01*
X188600Y-3548043D01*
Y-3563957D01*
X194690Y-3578658D01*
X205942Y-3589910D01*
X220643Y-3596000D01*
X236557D01*
X251258Y-3589910D01*
X255852Y-3585316D01*
X268552Y-3590577D01*
Y-3605502D01*
X368872D01*
Y-3505182D01*
D02*
G37*
G36*
X1277957Y-3389000D02*
X1262043D01*
X1247342Y-3395090D01*
X1236090Y-3406342D01*
X1230000Y-3421043D01*
Y-3436957D01*
X1236090Y-3451658D01*
X1237521Y-3453089D01*
X1236919Y-3467719D01*
X1233292Y-3473147D01*
X1232019Y-3479550D01*
Y-3517050D01*
X1233292Y-3523453D01*
X1236919Y-3528881D01*
X1242347Y-3532508D01*
X1248750Y-3533782D01*
X1291250D01*
X1297653Y-3532508D01*
X1303081Y-3528881D01*
X1306708Y-3523453D01*
X1307981Y-3517050D01*
Y-3479550D01*
X1306708Y-3473147D01*
X1303081Y-3467719D01*
X1302479Y-3453089D01*
X1303910Y-3451658D01*
X1310000Y-3436957D01*
Y-3421043D01*
X1303910Y-3406342D01*
X1292658Y-3395090D01*
X1277957Y-3389000D01*
D02*
G37*
G36*
X1142881Y-3503381D02*
X1109980D01*
Y-3533782D01*
X1126150D01*
X1132553Y-3532508D01*
X1137981Y-3528881D01*
X1141608Y-3523453D01*
X1142881Y-3517050D01*
Y-3503381D01*
D02*
G37*
G36*
X1099820D02*
X1066919D01*
Y-3517050D01*
X1068192Y-3523453D01*
X1071819Y-3528881D01*
X1077247Y-3532508D01*
X1083650Y-3533782D01*
X1099820D01*
Y-3503381D01*
D02*
G37*
G36*
X745150Y-3462819D02*
X702650D01*
X696247Y-3464092D01*
X690819Y-3467719D01*
X687192Y-3473147D01*
X685919Y-3479550D01*
Y-3502304D01*
X650351Y-3537872D01*
X518872D01*
Y-3505182D01*
X418552D01*
Y-3605502D01*
X518872D01*
Y-3574128D01*
X657860D01*
X664798Y-3572748D01*
X670679Y-3568819D01*
X673720Y-3565777D01*
X681181Y-3568085D01*
X685919Y-3571539D01*
Y-3583220D01*
X718820D01*
Y-3552818D01*
X708536D01*
X702497Y-3541006D01*
X708450Y-3533782D01*
X745150D01*
X751553Y-3532508D01*
X756981Y-3528881D01*
X760608Y-3523453D01*
X761881Y-3517050D01*
Y-3479550D01*
X760608Y-3473147D01*
X756981Y-3467719D01*
X751553Y-3464092D01*
X745150Y-3462819D01*
D02*
G37*
G36*
Y-3552818D02*
X728980D01*
Y-3583220D01*
X761881D01*
Y-3569550D01*
X760608Y-3563147D01*
X756981Y-3557719D01*
X751553Y-3554092D01*
X745150Y-3552818D01*
D02*
G37*
G36*
X2112460Y-3448140D02*
X2012140D01*
Y-3638460D01*
X2112460D01*
Y-3566608D01*
X2379739D01*
X2390342Y-3577210D01*
X2405043Y-3583300D01*
X2420957D01*
X2435658Y-3577210D01*
X2446910Y-3565958D01*
X2453000Y-3551257D01*
Y-3535343D01*
X2446910Y-3520642D01*
X2435658Y-3509390D01*
X2420957Y-3503300D01*
X2405043D01*
X2390342Y-3509390D01*
X2379739Y-3519992D01*
X2112460D01*
Y-3448140D01*
D02*
G37*
G36*
X761881Y-3593380D02*
X728980D01*
Y-3623781D01*
X745150D01*
X751553Y-3622508D01*
X756981Y-3618881D01*
X760608Y-3613453D01*
X761881Y-3607050D01*
Y-3593380D01*
D02*
G37*
G36*
X718820D02*
X685919D01*
Y-3607050D01*
X687192Y-3613453D01*
X690819Y-3618881D01*
X696247Y-3622508D01*
X702650Y-3623781D01*
X718820D01*
Y-3593380D01*
D02*
G37*
%LPD*%
G36*
X762000Y-1219200D02*
X673100D01*
X671560Y-1230240D01*
X633980D01*
Y-1295400D01*
X623820D01*
Y-1230240D01*
X586240D01*
X584200Y-1219200D01*
X495300D01*
Y-1130300D01*
X762000D01*
Y-1219200D01*
D02*
G37*
G36*
X622500Y-2151700D02*
X633440D01*
X653655Y-2160073D01*
X669126Y-2175545D01*
X677500Y-2195760D01*
Y-2206700D01*
X677489Y-2213328D01*
X674320Y-2226199D01*
X668184Y-2237949D01*
X659433Y-2247905D01*
X653999Y-2251700D01*
X536000Y-2251700D01*
X530567Y-2247904D01*
X521815Y-2237949D01*
X515679Y-2226199D01*
X512510Y-2213328D01*
X512500Y-2206700D01*
Y-2195760D01*
X520873Y-2175545D01*
X536345Y-2160074D01*
X556560Y-2151700D01*
X567500Y-2151701D01*
Y-2151700D01*
X622500Y-2151700D01*
D02*
G37*
G36*
X654000Y-2251700D02*
X653999D01*
D01*
X654000D01*
D02*
G37*
G36*
X653999Y-3065700D02*
X659433Y-3069496D01*
X668184Y-3079452D01*
X674320Y-3091201D01*
X677489Y-3104073D01*
X677500Y-3110700D01*
X677500D01*
Y-3121640D01*
X669126Y-3141855D01*
X653655Y-3157327D01*
X633440Y-3165700D01*
X567500D01*
Y-3165700D01*
X556560Y-3165700D01*
X536345Y-3157327D01*
X520873Y-3141855D01*
X512500Y-3121640D01*
X512500Y-3110700D01*
X512510Y-3104072D01*
X515679Y-3091201D01*
X521815Y-3079452D01*
X530567Y-3069496D01*
X536000Y-3065700D01*
X653999Y-3065700D01*
Y-3065700D01*
D02*
G37*
D10*
X1023879Y-2857500D02*
D03*
Y-2730500D02*
D03*
X1587500Y-3111500D02*
D03*
X1023879D02*
D03*
Y-2222500D02*
D03*
Y-2349500D02*
D03*
Y-2476500D02*
D03*
Y-2603500D02*
D03*
Y-2984500D02*
D03*
X1587500D02*
D03*
Y-2857500D02*
D03*
Y-2730500D02*
D03*
Y-2603500D02*
D03*
Y-2476500D02*
D03*
Y-2349500D02*
D03*
Y-2222500D02*
D03*
D11*
X1336770Y-825500D02*
D03*
D12*
X1061770Y-485500D02*
D03*
X1111770D02*
D03*
X1161770D02*
D03*
X1211770D02*
D03*
X1261770D02*
D03*
X1311770D02*
D03*
X1361770D02*
D03*
X1411770D02*
D03*
X1461770D02*
D03*
X1511770D02*
D03*
X1561770D02*
D03*
X1611770D02*
D03*
Y-1165500D02*
D03*
X1561770D02*
D03*
X1511770D02*
D03*
X1461770D02*
D03*
X1411770D02*
D03*
X1361770D02*
D03*
X1311770D02*
D03*
X1261770D02*
D03*
X1211770D02*
D03*
X1161770D02*
D03*
X1111770D02*
D03*
X1061770D02*
D03*
D13*
X1676770Y-550500D02*
D03*
Y-600500D02*
D03*
Y-650500D02*
D03*
Y-700500D02*
D03*
Y-750500D02*
D03*
Y-800500D02*
D03*
Y-850500D02*
D03*
Y-900500D02*
D03*
Y-950500D02*
D03*
Y-1000500D02*
D03*
Y-1050500D02*
D03*
Y-1100500D02*
D03*
X996770D02*
D03*
Y-1050500D02*
D03*
Y-1000500D02*
D03*
Y-950500D02*
D03*
Y-900500D02*
D03*
Y-850500D02*
D03*
Y-800500D02*
D03*
Y-750500D02*
D03*
Y-700500D02*
D03*
Y-650500D02*
D03*
Y-600500D02*
D03*
Y-550500D02*
D03*
D14*
X635000Y-2683700D02*
D03*
Y-2633700D02*
D03*
Y-2583700D02*
D03*
Y-2733700D02*
D03*
Y-2283700D02*
D03*
Y-2383700D02*
D03*
Y-2483700D02*
D03*
Y-2833700D02*
D03*
Y-2933700D02*
D03*
Y-3033700D02*
D03*
Y-2983700D02*
D03*
Y-2883700D02*
D03*
Y-2783700D02*
D03*
Y-2533700D02*
D03*
Y-2433700D02*
D03*
Y-2333700D02*
D03*
D15*
X1885400Y-2222500D02*
D03*
X1975400D02*
D03*
X1885400Y-2374900D02*
D03*
X1975400D02*
D03*
X1340400Y-1651000D02*
D03*
X1250400D02*
D03*
X1340400Y-1346200D02*
D03*
X1250400D02*
D03*
X641900Y-749300D02*
D03*
X551900D02*
D03*
D16*
X1104900Y-3498300D02*
D03*
Y-3588300D02*
D03*
X1854200Y-666200D02*
D03*
Y-756200D02*
D03*
X1270000Y-3588300D02*
D03*
Y-3498300D02*
D03*
X723900Y-3588300D02*
D03*
Y-3498300D02*
D03*
X952500Y-1491700D02*
D03*
Y-1581700D02*
D03*
X533400D02*
D03*
Y-1491700D02*
D03*
D17*
X2062300Y-3543300D02*
D03*
X1722300D02*
D03*
D18*
X2055855Y-2641600D02*
D03*
X1855745Y-2736600D02*
D03*
X2055855Y-3009900D02*
D03*
X1855745Y-3104900D02*
D03*
D19*
Y-2546600D02*
D03*
Y-2914900D02*
D03*
D20*
X595000Y-2201700D02*
D03*
Y-3115700D02*
D03*
D21*
X521600Y-1879600D02*
D03*
X951600D02*
D03*
D22*
X533900Y-1295400D02*
D03*
X628900D02*
D03*
X723900D02*
D03*
Y-1055400D02*
D03*
X533900D02*
D03*
D23*
X468712Y-3555342D02*
D03*
X318712D02*
D03*
D24*
X1225400Y-1498600D02*
D03*
X1365400D02*
D03*
X539600Y-889000D02*
D03*
X679600D02*
D03*
D25*
X736600Y-1466700D02*
D03*
Y-1606700D02*
D03*
D26*
X564228Y-580572D02*
D03*
Y-70272D02*
D03*
D27*
X825500Y-2857500D02*
X1023879D01*
X579920Y-2683700D02*
X635000D01*
Y-2733700D02*
X635691Y-2734391D01*
X702391D01*
X825500Y-2857500D01*
X635000Y-2683700D02*
X723042D01*
X600000Y-2733700D02*
X635000D01*
X723042Y-2683700D02*
X769842Y-2730500D01*
X1023879D01*
X558700Y-2745840D02*
X587860D01*
X482880Y-2633700D02*
X635000D01*
X459601Y-2720201D02*
Y-2656979D01*
X544860Y-2759680D02*
X558700Y-2745840D01*
X499080Y-2759680D02*
X544860D01*
X459601Y-2656979D02*
X482880Y-2633700D01*
X459601Y-2720201D02*
X499080Y-2759680D01*
X587860Y-2745840D02*
X600000Y-2733700D01*
X565268Y-2698352D02*
X579920Y-2683700D01*
X519828Y-2698352D02*
X565268D01*
X539000Y-2583700D02*
X635000D01*
X590606Y-3090902D02*
Y-2983403D01*
X555405Y-3126102D02*
X590606Y-3090902D01*
X555405Y-2226099D02*
X596900Y-2267594D01*
Y-2337498D02*
Y-2267594D01*
X444100Y-2520597D02*
X464471D01*
X551368Y-2433700D01*
X596900D02*
Y-2388786D01*
X551368Y-2433700D02*
X596900D01*
X2062300Y-3543300D02*
X2413000D01*
X1854200Y-825500D02*
Y-772160D01*
X1270000Y-3482340D02*
Y-3429000D01*
X228600Y-3556000D02*
X304800D01*
X1026290Y-2222500D02*
X1028700Y-2220090D01*
Y-2171700D01*
X674600Y-889000D02*
X736600D01*
X674592Y-889008D02*
X674600Y-889000D01*
X657860Y-749300D02*
X711200D01*
X736600Y-1663700D02*
Y-1601700D01*
X736592Y-1601692D02*
X736600Y-1601700D01*
X533400Y-1651000D02*
Y-1597660D01*
X1230392Y-1498608D02*
X1234440Y-1494560D01*
Y-1346200D01*
X590606Y-2983403D02*
X592907Y-2981101D01*
X635406D01*
D28*
X539000Y-2586691D02*
Y-2583700D01*
D29*
X1844040Y-2418760D02*
X1885400Y-2377400D01*
Y-2374900D01*
X1844040Y-2418847D02*
Y-2418760D01*
X1873787Y-2891913D02*
X1934424D01*
X1955800Y-2870537D01*
Y-2757224D01*
X1850800Y-2914900D02*
X1873787Y-2891913D01*
X1955219Y-2688519D02*
X1956381Y-2689681D01*
X1955800Y-2612087D02*
X1991360Y-2576527D01*
X1955800Y-2757224D02*
X1956381Y-2756642D01*
Y-2689681D01*
X1955219Y-2621558D02*
X1955800Y-2620976D01*
X1955219Y-2688519D02*
Y-2621558D01*
X1955800Y-2620976D02*
Y-2612087D01*
X547900Y-598700D02*
X1012470D01*
X1741623Y-273140D02*
X2505937D01*
X1576410Y-438353D02*
X1741623Y-273140D01*
X1561770Y-453832D02*
X1576410Y-439192D01*
Y-438353D01*
X1561770Y-495500D02*
Y-453832D01*
X1498600Y-2023743D02*
Y-1333500D01*
X1099183Y-2423160D02*
X1498600Y-2023743D01*
X1026290Y-2476500D02*
X1078064D01*
X1099183Y-2455380D02*
Y-2423160D01*
X1078064Y-2476500D02*
X1099183Y-2455380D01*
X2159000Y-2670729D02*
Y-1765300D01*
X2118180Y-2711549D02*
X2159000Y-2670729D01*
X657860Y-3556000D02*
X723900Y-3489960D01*
Y-3482340D01*
X482600Y-3556000D02*
X657860D01*
X1838067Y-3117633D02*
X1850800Y-3104900D01*
X1701800Y-3187700D02*
X1771867Y-3117633D01*
X1485900Y-3187700D02*
X1701800D01*
X1771867Y-3117633D02*
X1838067D01*
X1435100Y-3136900D02*
Y-2579536D01*
Y-3136900D02*
X1485900Y-3187700D01*
X1435100Y-2579536D02*
X1510042Y-2504594D01*
X1531162Y-2476500D02*
X1648659D01*
X1510042Y-2497620D02*
X1531162Y-2476500D01*
X1510042Y-2504594D02*
Y-2497620D01*
X2060800Y-3273200D02*
Y-3009900D01*
X1790700Y-3543300D02*
X2060800Y-3273200D01*
X1498600Y-3543300D02*
X1790700D01*
X1104900Y-3604260D02*
X1437640D01*
X927100Y-1270000D02*
Y-977900D01*
X546100Y-596900D02*
X547900Y-598700D01*
X1012470D02*
X1014270Y-600500D01*
X2445760Y-650500D02*
X2461260Y-635000D01*
X1659270Y-650500D02*
X2445760D01*
X1799834Y-519952D02*
X2498749D01*
X1719286Y-600500D02*
X1799834Y-519952D01*
X1857140Y-398582D02*
X2281118D01*
X2286000Y-393700D01*
X1705222Y-550500D02*
X1857140Y-398582D01*
X1659270Y-550500D02*
X1705222D01*
X2498749Y-519952D02*
X2569120Y-590323D01*
X2505937Y-273140D02*
X2599600Y-366803D01*
X2461260Y-1143000D02*
X2599600Y-1004660D01*
Y-366803D01*
X2461260Y-889000D02*
X2569120Y-781140D01*
Y-590323D01*
X1659270Y-600500D02*
X1719286D01*
X1437640Y-3604260D02*
X1498600Y-3543300D01*
X1561770Y-1206170D02*
X2082800Y-1727200D01*
X1561770Y-1206170D02*
Y-1148000D01*
X2082800Y-2619600D02*
Y-1727200D01*
X927100Y-977900D02*
X954500Y-950500D01*
X1014270D01*
X2060800Y-3009900D02*
X2095800D01*
X2118180Y-2987520D01*
Y-2711549D01*
X2060800Y-2641600D02*
X2082800Y-2619600D01*
X1659387Y-2603500D02*
X1714370D01*
X1589910D02*
X1659387D01*
X1714370D02*
X1793420Y-2682549D01*
Y-2714220D02*
Y-2682549D01*
X1815800Y-2736600D02*
X1850800D01*
X1793420Y-2714220D02*
X1815800Y-2736600D01*
X1991360Y-2576527D02*
Y-2374900D01*
X1930400Y-2502000D02*
Y-2337927D01*
X1850800Y-2546600D02*
X1885800D01*
X1991360Y-2276967D02*
Y-2222500D01*
X1930400Y-2337927D02*
X1991360Y-2276967D01*
X1885800Y-2546600D02*
X1930400Y-2502000D01*
X1669778Y-2455380D02*
Y-2445454D01*
X1844040Y-2271193D01*
Y-2240280D01*
X1648659Y-2476500D02*
X1669778Y-2455380D01*
X1861820Y-2222500D02*
X1869440D01*
X1844040Y-2240280D02*
X1861820Y-2222500D01*
X1659387Y-2603500D02*
X1844040Y-2418847D01*
D30*
X444100Y-2520597D02*
Y-2113819D01*
X381000Y-2726666D02*
Y-2583697D01*
X562634Y-2908300D02*
X635000D01*
X660400D01*
X381000Y-2726666D02*
X562634Y-2908300D01*
X381000Y-2583697D02*
X444100Y-2520597D01*
Y-2113819D02*
X506600Y-2051319D01*
Y-1879600D01*
X533400Y-1477334D02*
X838200D01*
X177800Y-1651000D02*
X353060Y-1475740D01*
X533400D01*
Y-1468120D01*
Y-1477334D02*
Y-1475740D01*
Y-1468120D02*
X533900Y-1467620D01*
Y-1295400D01*
X911860Y-1549400D02*
X952500Y-1590040D01*
X838200Y-1477334D02*
X910266Y-1549400D01*
X952500Y-1597660D02*
Y-1590040D01*
X910266Y-1549400D02*
X911860D01*
X534920Y-1054380D02*
Y-749300D01*
X535940D01*
X533900Y-1055400D02*
X534920Y-1054380D01*
X952500Y-1475740D02*
Y-1422400D01*
X825500Y-1295400D02*
X952500Y-1422400D01*
X723900Y-1295400D02*
X825500D01*
X952500Y-1865500D02*
X966600Y-1879600D01*
X952500Y-1865500D02*
Y-1597660D01*
D31*
X1358900Y-1636288D02*
Y-1487912D01*
X1371600Y-381190D02*
X1410735Y-420325D01*
Y-450699D02*
X1411770Y-451734D01*
Y-503000D02*
Y-451734D01*
X1410735Y-450699D02*
Y-420325D01*
X1371600Y-381190D02*
Y-381000D01*
X1461135Y-502365D02*
Y-381635D01*
X1460500Y-381000D02*
X1461135Y-381635D01*
Y-502365D02*
X1461770Y-503000D01*
X1308100Y-571500D02*
X1561690D01*
X1168400D02*
X1308100D01*
X1311770Y-567830D02*
Y-485500D01*
X1308100Y-571500D02*
X1311770Y-567830D01*
X1063870Y-571500D02*
X1168400D01*
X1161770Y-564870D02*
X1168400Y-571500D01*
X1161770Y-564870D02*
Y-485500D01*
X1051536Y-571500D02*
X1063870D01*
X1014270Y-550500D02*
X1030536D01*
X1051536Y-571500D01*
X1063870Y-647700D02*
Y-571500D01*
X1360392Y-1498608D02*
Y-1350232D01*
X1361770Y-1340790D02*
Y-1110303D01*
X1356360Y-1346200D02*
X1360392Y-1350232D01*
X1447800Y-1999110D02*
Y-1435100D01*
X1097410Y-2349500D02*
X1447800Y-1999110D01*
X1026290Y-2349500D02*
X1097410D01*
X1063870Y-1083521D02*
X1078749Y-1098400D01*
X1349867D02*
X1361770Y-1110303D01*
X1078749Y-1098400D02*
X1349867D01*
X1063870Y-698500D02*
Y-647700D01*
Y-1083521D02*
Y-698500D01*
X1014270Y-700500D02*
X1061870D01*
X1063870Y-698500D01*
X1061070Y-650500D02*
X1063870Y-647700D01*
X1014270Y-650500D02*
X1061070D01*
X1609430Y-505340D02*
X1611770Y-503000D01*
X1609430Y-523760D02*
Y-505340D01*
X1561690Y-571500D02*
X1609430Y-523760D01*
X1356360Y-1346200D02*
X1361770Y-1340790D01*
D32*
X295000Y-2206700D02*
D03*
Y-3110700D02*
D03*
D33*
X595000Y-2206700D02*
D03*
Y-3110700D02*
D03*
D34*
X2463800Y-1905000D02*
D03*
Y-1651000D02*
D03*
Y-381000D02*
D03*
Y-635000D02*
D03*
Y-889000D02*
D03*
Y-1143000D02*
D03*
Y-1397000D02*
D03*
X177800Y-1905000D02*
D03*
Y-1651000D02*
D03*
Y-381000D02*
D03*
Y-635000D02*
D03*
Y-889000D02*
D03*
Y-1143000D02*
D03*
Y-1397000D02*
D03*
X937260Y-127000D02*
D03*
X1191260D02*
D03*
X1445260D02*
D03*
X1699260D02*
D03*
X1953260D02*
D03*
D35*
X2463800D02*
D03*
X177800D02*
D03*
D36*
X2207260D02*
D03*
D37*
X533400Y-2578100D02*
D03*
X525780Y-2692400D02*
D03*
X1501770Y-990500D02*
D03*
X1391770D02*
D03*
X1281770D02*
D03*
X1171770D02*
D03*
X1501770Y-880500D02*
D03*
X1391770D02*
D03*
X1281770D02*
D03*
X1171770D02*
D03*
X1501770Y-770500D02*
D03*
X1391770D02*
D03*
X1281770D02*
D03*
X1171770D02*
D03*
X1501770Y-660500D02*
D03*
X1391770D02*
D03*
X1281770D02*
D03*
X1171770D02*
D03*
X1371600Y-381000D02*
D03*
X1460500D02*
D03*
X2413000Y-3543300D02*
D03*
X1854200Y-825500D02*
D03*
X1270000Y-3429000D02*
D03*
X228600Y-3556000D02*
D03*
X1028700Y-2171700D02*
D03*
X736600Y-889000D02*
D03*
X711200Y-749300D02*
D03*
X723900Y-1168400D02*
D03*
X622300D02*
D03*
X520700D02*
D03*
X736600Y-1663700D02*
D03*
X533400Y-1651000D02*
D03*
X1234440Y-1420380D02*
D03*
X1447800Y-1435100D02*
D03*
X1498600Y-1333500D02*
D03*
X2159000Y-1765300D02*
D03*
X927100Y-1270000D02*
D03*
X2286000Y-393700D02*
D03*
%TF.MD5,e57e85b564d74bfed9c4069db84d1b52*%
M02*
