M48
;Layer_Color=9474304
;FILE_FORMAT=4:4
METRIC,LZ
;TYPE=PLATED
T1F00S00C0.2000
T2F00S00C0.3000
T4F00S00C0.9000
%
T01
X00117177Y-0009905
X00128177
X00139177
X00150177
Y-0008805
X00139177
X00128177
X00117177
Y-0007705
X00128177
X00139177
X00150177
Y-0006605
X00139177
X00128177
X00117177
T02
X00052498Y-00276018
Y-0026543
X00127Y-003429
X002413Y-0035433
X0002286Y-003556
X0010287Y-0021717
X0007366Y-0016637
X0005334Y-001651
X0005207Y-0011684
X0006223
X0007239
X0007366Y-000889
X0007112Y-0007493
X0009271Y-00127
X00123444Y-00142038
X0014478Y-0014351
X0014986Y-0013335
X0018542Y-0008255
X0014605Y-000381
X0013716
X002286Y-0003937
X002159Y-0017653
T04
X0001778Y-001905
Y-001651
Y-001397
Y-001143
Y-000889
Y-000635
Y-000381
Y-000127
X00093726
X00119126
X00144526
X00169926
X00195326
X00220726
X0024638
Y-000381
Y-000635
Y-000889
Y-001143
Y-001397
Y-001651
Y-001905
M30
